<svg fill="none" height="168" viewBox="0 0 268 168" width="268" xmlns="http://www.w3.org/2000/svg" xmlns:xlink="http://www.w3.org/1999/xlink"><clipPath id="a"><path d="m0 0h268v168h-268z"/></clipPath><clipPath id="b"><path d="m44.667 65.4167h26.6667v38.5822h-26.6667z"/></clipPath><g clip-path="url(#a)"><path d="m0 0h268v168h-268z" fill="#fff"/><path d="m160-20c0-22.0914 17.909-40 40-40h120c22.091 0 40 17.9086 40 40v100c0 22.091-17.909 40-40 40h-120c-22.091 0-40-17.909-40-40z" stroke="#f5f7fc" stroke-opacity=".6" stroke-width="20"/><g clip-path="url(#b)"><g fill="#0d0c22"><path d="m68.5301 74.3917-.0265-.0156-.0612-.0187c.0246.0208.0555.0329.0877.0343z"/><path d="m68.9193 77.1479-.0306.0086z"/><path d="m68.5419 74.3875c-.0039-.0005-.0077-.0014-.0115-.0027-.0002.0025-.0002.0051 0 .0076.0042-.0006.0082-.0023.0115-.0049z"/><path d="m68.5303 74.3911h.003v-.0019z"/><path d="m68.8916 77.1426.0446-.0254.0167-.0093.015-.0161c-.0283.0122-.0541.0294-.0763.0508z"/><path d="m68.6064 74.4517-.0436-.0416-.0296-.0161c.0159.0281.0422.0488.0732.0577z"/><path d="m57.6396 101.199c-.0349.015-.0654.038-.0888.068l.0275-.017c.0187-.017.0452-.038.0613-.051z"/><path d="m64.0075 99.9453c0-.0391-.0192-.0319-.0146.1077 0-.011.0047-.022.0068-.033.0026-.0252.0046-.0496.0078-.0747z"/><path d="m63.3485 101.199c-.0348.015-.0653.038-.0887.068l.0275-.017c.0187-.017.0451-.038.0612-.051z"/><path d="m53.152 101.497c-.0264-.023-.0588-.038-.0934-.044.028.014.056.027.0747.038z"/><path d="m52.1414 100.53c-.0042-.041-.0167-.08-.0369-.116.0143.037.0262.075.0358.114z"/></g><path d="m58.9238 83.2398c-1.3859.5933-2.9586 1.266-4.9969 1.266-.8527-.0017-1.7013-.1187-2.5226-.3478l1.4097 14.4738c.0499.6048.3255 1.1689.7721 1.5802.4465.411 1.0314.639 1.6384.639 0 0 1.9988.104 2.6658.104.7179 0 2.8703-.104 2.8703-.104.607 0 1.1917-.228 1.6381-.639.4465-.4116.722-.9754.7719-1.5802l1.5099-15.9941c-.6748-.2304-1.3557-.3835-2.1234-.3835-1.3277-.0006-2.3975.4567-3.6333.9856z" fill="#fd0"/><path d="m47.0391 77.0647.0247.0232.0162.0097c-.0125-.0124-.0262-.0234-.0409-.0329z" fill="#0d0c22"/><path d="m71.199 75.7289-.2123-1.0708c-.1905-.9607-.6229-1.8685-1.6091-2.2158-.3161-.1111-.6747-.1588-.9171-.3887-.2424-.23-.3141-.5871-.3701-.9182-.1038-.6079-.2014-1.2162-.3078-1.8229-.0919-.5217-.1645-1.1077-.4038-1.5862-.3114-.6426-.9577-1.0184-1.6003-1.267-.3292-.123-.6652-.2269-1.0064-.3115-1.6054-.4235-3.2933-.5792-4.945-.668-1.9823-.1094-3.97-.0764-5.9477.0986-1.4721.1339-3.0225.2959-4.4213.8051-.5112.1863-1.0381.41-1.4268.805-.4771.4853-.6328 1.2359-.2845 1.8411.2476.4297.667.7334 1.1118.9343.5794.2588 1.1845.4557 1.8053.5875 1.7284.3821 3.5186.532 5.2844.5959 1.9571.079 3.9174.015 5.8652-.1915.4817-.053.9625-.1165 1.4425-.1905.5652-.0867.928-.8258.7614-1.3407-.1993-.6156-.735-.8544-1.3407-.7615-.0893.014-.178.027-.2673.04l-.0643.0093c-.2053.026-.4105.0502-.6156.0727-.4239.0457-.8488.0831-1.2748.1121-.954.0665-1.9106.0971-2.8667.0986-.9395 0-1.8795-.0264-2.8169-.0882-.4277-.028-.8544-.0637-1.28-.1069-.1936-.0203-.3867-.0415-.5797-.0654l-.1838-.0234-.04-.0057-.1905-.0275c-.3892-.0587-.7785-.1261-1.1637-.2076-.0388-.0087-.0736-.0302-.0985-.0613s-.0385-.0697-.0385-.1095.0136-.0784.0385-.1095c.0249-.031.0597-.0526.0985-.0613h.0073c.3338-.0711.6701-.1318 1.0075-.1847.1124-.0177.2252-.035.3384-.0519h.0031c.2113-.0141.4236-.0519.6338-.0769 1.8289-.1902 3.6687-.2551 5.5066-.1941.8922.026 1.7839.0784 2.672.1687.191.0197.381.0405.571.0639.0726.0088.1458.0192.219.028l.1474.0213c.4298.064.8573.1417 1.2826.233.6301.137 1.4393.1817 1.7196.872.0893.219.1298.4625.179.6924l.0629.2933c.0016.0052.0028.0106.0036.0161.1484.692.2971 1.3841.4459 2.0762.0109.0511.0111.1039.0007.1551-.0104.0513-.0312.0998-.0613.1426-.0299.0428-.0685.079-.1131.1063-.0446.0272-.0943.045-.1461.0522h-.0041l-.0909.0125-.0897.0119c-.2845.037-.5693.0716-.8544.1038-.5616.064-1.1241.1194-1.6874.1661-1.1194.0931-2.2411.1542-3.365.1832-.5727.0153-1.1452.0224-1.7176.0213-2.2781-.0018-4.5542-.1342-6.8171-.3965-.245-.0291-.49-.0603-.735-.0919.19.0244-.1381-.0187-.2045-.028-.1557-.0218-.3114-.0445-.4672-.068-.5226-.0784-1.0422-.175-1.5639-.2596-.6306-.1038-1.2337-.0519-1.8042.2596-.4682.2562-.8472.6491-1.0863 1.1263-.2461.5087-.3192 1.0625-.4293 1.6091-.11.5465-.2813 1.1346-.2164 1.6957.1396 1.2109.9862 2.195 2.2039 2.4151 1.1455.2076 2.2973.3758 3.4521.5191 4.5367.5556 9.1199.622 13.6707.1982.3706-.0346.7407-.0723 1.1103-.1131.1154-.0127.2322.0006.3418.0389.1097.0383.2093.1007.2917.1825.0825.0818.1455.181.1846.2903.0391.1094.0533.2261.0414.3416l-.1152 1.1201c-.2322 2.2634-.4644 4.5266-.6966 6.7897-.2422 2.3765-.486 4.7529-.7313 7.129-.0692.6693-.1384 1.3384-.2076 2.0072-.0665.6588-.0758 1.3382-.2009 1.9891-.1972 1.0238-.8902 1.6518-1.9013 1.8818-.9263.211-1.8726.322-2.8226.33-1.0531.006-2.1057-.041-3.1589-.035-1.1243.006-2.5013-.097-3.3691-.934-.7625-.735-.8679-1.8859-.9717-2.8811-.1384-1.3173-.2756-2.6344-.4116-3.9514l-.763-7.3232-.4936-4.7384c-.0083-.0784-.0166-.1557-.0244-.2346-.0592-.5653-.4594-1.1186-1.09-1.09-.5398.0238-1.1533.4827-1.09 1.09l.3659 3.5129.7568 7.2667c.2156 2.064.4306 4.1284.6452 6.1932.0415.3955.0804.7922.124 1.1879.2372 2.161 1.8878 3.326 3.9318 3.654 1.1938.192 2.4167.231 3.6282.251 1.553.025 3.1215.085 4.6491-.197 2.2636-.415 3.9619-1.926 4.2043-4.2708.0692-.677.1384-1.3539.2076-2.0311.2301-2.2396.4599-4.4793.6893-6.7191l.7505-7.3186.3442-3.3541c.0171-.1663.0873-.3227.2003-.446.1129-.1233.2625-.207.4267-.2386.6472-.1262 1.2659-.3416 1.7263-.8341.7329-.7843.8788-1.8068.6198-2.8377zm-24.3481.7236c.0099-.0047-.0083.0799-.0161.1194-.0015-.0597.0016-.1127.0161-.1194zm.0628.4858c.0052-.0036.0208.0172.0369.0421-.0244-.0229-.04-.04-.0374-.0421zm.0618.0815c.0223.0379.0343.0618 0 0zm.1241.1007h.0031c0 .0036.0057.0073.0078.0109-.0035-.004-.0073-.0077-.0115-.0109zm21.7232-.1505c-.2326.2211-.5829.3239-.9291.3753-3.8825.5761-7.8216.8678-11.7466.7391-2.8091-.096-5.5886-.408-8.3697-.8009-.2725-.0384-.5678-.0883-.7552-.2891-.3529-.3789-.1796-1.1419-.0877-1.5997.0841-.4194.245-.9784.7438-1.0381.7786-.0914 1.6827.2372 2.453.354.9274.1415 1.8582.2548 2.7925.3399 3.9873.3634 8.0416.3068 12.0113-.2247.7235-.0973 1.4445-.2102 2.1629-.3389.64-.1148 1.3495-.3302 1.7362.3327.2652.4515.3005 1.0557.2595 1.5659-.0126.2223-.1098.4314-.2714.5845z" fill="#0d0c22"/></g><path d="m91.6875 78.1504h3.8232c1.6582 0 2.9092.2402 3.753.7207.8433.4805 1.2653 1.3096 1.2653 2.4873 0 .4922-.088.9375-.263 1.3359-.17.3926-.4193.7178-.7474.9756-.3282.252-.7325.4219-1.2129.5098v.0879c.498.0879.9404.2431 1.3271.4658.3922.2227.7002.542.9232.958.228.416.342.9551.342 1.6172 0 .7852-.187 1.4531-.562 2.0039-.3692.5508-.8995.9697-1.5909 1.2568-.6855.2871-1.5.4307-2.4433.4307h-4.6143zm2.1094 5.2998h2.0215c.955 0 1.6171-.1553 1.9863-.4658.3691-.3106.5537-.7647.5537-1.3623 0-.6094-.2197-1.0489-.6592-1.3184-.4336-.2695-1.125-.4043-2.0742-.4043h-1.8281zm0 1.7051v4.0781h2.2236c.9844 0 1.6758-.1904 2.0742-.5713.3985-.3809.5977-.8965.5977-1.5469 0-.3984-.0908-.7441-.2725-1.0371-.1758-.2929-.4658-.5185-.8701-.6767-.4043-.1641-.9492-.2461-1.6348-.2461zm18.0261-3.8848v9.7295h-1.626l-.281-1.3096h-.114c-.205.334-.466.6123-.782.835-.317.2168-.668.3779-1.055.4834-.387.1113-.794.167-1.222.167-.732 0-1.359-.1231-1.881-.3692-.515-.2519-.911-.6386-1.186-1.1601-.276-.5215-.413-1.1953-.413-2.0215v-6.3545h2.074v5.9678c0 .7558.152 1.3213.457 1.6963.31.375.791.5625 1.441.5625.627 0 1.125-.1289 1.494-.3867.37-.2579.63-.6387.783-1.1426.158-.5039.237-1.1221.237-1.8545v-4.8428zm1.494 0h2.25l1.995 5.5547c.088.2519.167.501.238.7471.076.2402.14.4775.193.7119.059.2344.106.4687.141.7031h.053c.058-.3047.14-.6445.246-1.0195.111-.3809.234-.7617.369-1.1426l1.916-5.5547h2.223l-4.174 11.0654c-.241.6329-.537 1.1719-.888 1.6172-.346.4512-.756.791-1.231 1.0196-.474.2343-1.016.3515-1.626.3515-.293 0-.547-.0176-.764-.0527-.217-.0293-.402-.0615-.554-.0967v-1.6523c.123.0293.278.0556.466.0791.187.0234.381.0351.58.0351.369 0 .688-.0732.958-.2197s.498-.3545.686-.624c.187-.2637.342-.5655.465-.9053l.343-.9141zm21.534 9.7295-3.701-10.7314h-.079c.018.2402.038.5683.062.9843.023.416.044.8614.061 1.336.018.4746.027.9287.027 1.3623v7.0488h-1.916v-12.8496h2.962l3.559 10.2568h.053l3.683-10.2568h2.953v12.8496h-2.013v-7.1543c0-.3926.006-.8174.018-1.2744.017-.457.035-.8906.052-1.3008.024-.4101.041-.7383.053-.9844h-.07l-3.841 10.7139zm14.712-9.9141c.868 0 1.612.1787 2.233.5362.621.3574 1.099.8642 1.433 1.5205.333.6562.5 1.4414.5 2.3554v1.1075h-6.495c.024.9433.276 1.6699.756 2.1797.487.5097 1.166.7646 2.039.7646.621 0 1.178-.0586 1.67-.1758.498-.123 1.011-.3017 1.538-.5361v1.6787c-.486.2285-.981.3955-1.485.501-.504.1054-1.107.1582-1.811.1582-.955 0-1.795-.1846-2.522-.5537-.721-.375-1.286-.9317-1.696-1.67-.405-.7382-.607-1.6552-.607-2.7509 0-1.0899.185-2.0157.554-2.7774s.888-1.3418 1.556-1.7402 1.447-.5977 2.337-.5977zm0 1.5557c-.65 0-1.177.2109-1.582.6328-.398.4219-.632 1.0401-.703 1.8545h4.43c-.006-.4863-.088-.917-.246-1.292-.152-.375-.387-.668-.703-.8789-.311-.2109-.709-.3164-1.196-.3164zm14.986-1.5557c1.23 0 2.159.2725 2.786.8174.633.5449.949 1.3946.949 2.5488v6.5479h-1.468l-.395-1.3799h-.07c-.276.3516-.56.6416-.853.8701-.293.2286-.633.3985-1.019.5098-.381.1172-.847.1758-1.398.1758-.58 0-1.099-.1055-1.556-.3164-.457-.2168-.817-.5449-1.081-.9844-.263-.4395-.395-.9961-.395-1.6699 0-1.002.372-1.7549 1.116-2.2588.75-.5039 1.881-.7822 3.393-.835l1.687-.0615v-.5098c0-.6738-.158-1.1543-.474-1.4414-.311-.2871-.75-.4306-1.319-.4306-.486 0-.958.0703-1.415.2109s-.902.3135-1.336.5186l-.668-1.459c.475-.252 1.014-.4571 1.617-.6153.61-.1582 1.243-.2373 1.899-.2373zm1.687 5.2647-1.257.0439c-1.031.0352-1.754.211-2.17.5274s-.624.75-.624 1.3008c0 .4804.143.832.43 1.0546.287.2168.665.3252 1.134.3252.715 0 1.307-.2021 1.775-.6064.475-.4102.712-1.0107.712-1.8018zm15.302-6.5918c-.615 0-1.166.1113-1.652.334-.481.2226-.888.5449-1.222.9668-.334.416-.589.9228-.765 1.5205-.175.5918-.263 1.2597-.263 2.0039 0 .9961.14 1.8545.422 2.5752.281.7148.709 1.2656 1.283 1.6523.574.3809 1.301.5713 2.18.5713.544 0 1.075-.0527 1.59-.1582.516-.1055 1.049-.249 1.6-.4307v1.793c-.522.2051-1.049.3545-1.582.4483-.533.0937-1.149.1406-1.846.1406-1.312 0-2.402-.2725-3.269-.8174-.862-.5449-1.506-1.3125-1.934-2.3027-.422-.9903-.633-2.1504-.633-3.4805 0-.9727.135-1.8633.405-2.6719.269-.8086.662-1.5058 1.177-2.0918.516-.5918 1.152-1.0459 1.908-1.3623.761-.3222 1.631-.4834 2.61-.4834.644 0 1.277.0733 1.898.2197.627.1407 1.207.3428 1.741.6065l-.739 1.7402c-.445-.2109-.911-.3926-1.397-.5449-.487-.1523-.99-.2285-1.512-.2285zm14.335 6.3545c0 .8086-.105 1.5263-.316 2.1533s-.519 1.1572-.923 1.5908c-.405.4278-.891.7559-1.459.9844-.569.2227-1.21.334-1.925.334-.668 0-1.28-.1113-1.837-.334-.557-.2285-1.04-.5566-1.45-.9844-.404-.4336-.718-.9638-.941-1.5908-.222-.627-.334-1.3447-.334-2.1533 0-1.0723.185-1.9805.554-2.7246.375-.75.908-1.3213 1.6-1.7139.691-.3926 1.514-.5889 2.47-.5889.896 0 1.687.1963 2.373.5889.685.3926 1.221.9639 1.608 1.7139s.58 1.6582.58 2.7246zm-7.058 0c0 .709.085 1.3154.255 1.8193.176.5039.446.8906.809 1.1602.363.2636.832.3955 1.406.3955s1.043-.1319 1.406-.3955c.364-.2696.63-.6563.8-1.1602s.255-1.1103.255-1.8193-.085-1.3096-.255-1.8018c-.17-.498-.436-.876-.8-1.1338-.363-.2636-.835-.3955-1.415-.3955-.855 0-1.479.2871-1.872.8614-.392.5742-.589 1.3974-.589 2.4697zm14.291-3.2695h-2.364v8.1562h-2.065v-8.1562h-1.591v-.9932l1.591-.6065v-.6767c0-.8262.129-1.4824.386-1.9688.264-.4863.639-.8349 1.125-1.0459.493-.2168 1.079-.3252 1.758-.3252.446 0 .853.0381 1.222.1143.369.0703.68.1523.932.2461l-.537 1.5644c-.199-.0644-.421-.123-.667-.1757-.247-.0586-.51-.0879-.792-.0879-.468 0-.814.1465-1.037.4394-.216.293-.325.7207-.325 1.2832v.6592h2.364zm6.522 0h-2.364v8.1562h-2.066v-8.1562h-1.591v-.9932l1.591-.6065v-.6767c0-.8262.129-1.4824.387-1.9688.264-.4863.639-.8349 1.125-1.0459.492-.2168 1.078-.3252 1.758-.3252.445 0 .852.0381 1.221.1143.37.0703.68.1523.932.2461l-.536 1.5644c-.199-.0644-.422-.123-.668-.1757-.246-.0586-.51-.0879-.791-.0879-.469 0-.814.1465-1.037.4394-.217.293-.325.7207-.325 1.2832v.6592h2.364zm5.537-1.7579c.867 0 1.611.1787 2.232.5362.622.3574 1.099.8642 1.433 1.5205.334.6562.501 1.4414.501 2.3554v1.1075h-6.495c.023.9433.275 1.6699.756 2.1797.486.5097 1.166.7646 2.039.7646.621 0 1.178-.0586 1.67-.1758.498-.123 1.011-.3017 1.538-.5361v1.6787c-.486.2285-.982.3955-1.485.501-.504.1054-1.108.1582-1.811.1582-.955 0-1.796-.1846-2.522-.5537-.721-.375-1.287-.9317-1.697-1.67-.404-.7382-.606-1.6552-.606-2.7509 0-1.0899.184-2.0157.553-2.7774.37-.7617.888-1.3418 1.556-1.7402s1.447-.5977 2.338-.5977zm0 1.5557c-.65 0-1.178.2109-1.582.6328-.398.4219-.633 1.0401-.703 1.8545h4.43c-.006-.4863-.088-.917-.247-1.292-.152-.375-.386-.668-.703-.8789-.31-.2109-.709-.3164-1.195-.3164zm10.371-1.5557c.867 0 1.611.1787 2.233.5362.621.3574 1.098.8642 1.432 1.5205.334.6562.501 1.4414.501 2.3554v1.1075h-6.495c.023.9433.275 1.6699.756 2.1797.486.5097 1.166.7646 2.039.7646.621 0 1.178-.0586 1.67-.1758.498-.123 1.011-.3017 1.538-.5361v1.6787c-.486.2285-.981.3955-1.485.501-.504.1054-1.108.1582-1.811.1582-.955 0-1.796-.1846-2.522-.5537-.721-.375-1.287-.9317-1.697-1.67-.404-.7382-.606-1.6552-.606-2.7509 0-1.0899.184-2.0157.554-2.7774.369-.7617.887-1.3418 1.555-1.7402s1.448-.5977 2.338-.5977zm0 1.5557c-.65 0-1.178.2109-1.582.6328-.398.4219-.633 1.0401-.703 1.8545h4.43c-.006-.4863-.088-.917-.246-1.292-.153-.375-.387-.668-.704-.8789-.31-.2109-.709-.3164-1.195-.3164z" fill="#1a2947"/></g></svg>