<?xml version="1.0" encoding="UTF-8"?>
<svg version="1.1" xmlns="http://www.w3.org/2000/svg" width="600" height="600">
<path d="M0 0 C198 0 396 0 600 0 C600 198 600 396 600 600 C402 600 204 600 0 600 C0 402 0 204 0 0 Z " fill="#FDFDFE" transform="translate(0,0)"/>
<path d="M0 0 C4.05149624 3.14435191 7.9130271 6.47687003 11.70703125 9.92578125 C12.29742187 10.46106445 12.8878125 10.99634766 13.49609375 11.54785156 C30.10750945 26.8463695 42.54291796 46.49938499 49.70703125 67.92578125 C49.97483398 68.66465576 50.24263672 69.40353027 50.51855469 70.16479492 C53.67231166 79.927004 53.1727828 89.97364373 53.21826172 100.1184082 C53.23405751 102.55837917 53.26705282 104.99772127 53.30078125 107.4375 C53.29776001 108.17103195 53.29473877 108.9045639 53.29162598 109.6603241 C53.3769117 115.60403364 54.48093127 121.2503293 58.390625 125.94921875 C59.25880859 126.61824219 59.25880859 126.61824219 60.14453125 127.30078125 C60.72074219 127.76226562 61.29695312 128.22375 61.890625 128.69921875 C66.82887956 132.03386807 69.07464218 132.09673262 75.70703125 132.92578125 C75.70703125 138.53578125 75.70703125 144.14578125 75.70703125 149.92578125 C74.18078125 150.17328125 72.65453125 150.42078125 71.08203125 150.67578125 C66.33675463 151.60872814 63.52870718 153.0362214 59.70703125 155.92578125 C58.71703125 156.25578125 57.72703125 156.58578125 56.70703125 156.92578125 C55.53749709 159.34961202 55.53749709 159.34961202 54.70703125 161.92578125 C54.37703125 162.58578125 54.04703125 163.24578125 53.70703125 163.92578125 C53.60777731 165.72118764 53.57146873 167.52022257 53.56518555 169.31835938 C53.55815109 170.44713501 53.55111664 171.57591064 53.54386902 172.7388916 C53.5376226 174.57937073 53.5376226 174.57937073 53.53125 176.45703125 C53.50803856 179.04818509 53.48392071 181.63933094 53.45898438 184.23046875 C53.42271105 188.32063714 53.39289896 192.41065909 53.38110352 196.50097656 C53.3689857 200.44493877 53.32528814 204.38829333 53.28125 208.33203125 C53.28315842 209.54282349 53.28506683 210.75361572 53.28703308 212.00109863 C53.16856819 220.29096393 52.10037564 227.70127356 46.77734375 234.328125 C46.13539063 234.83472656 45.4934375 235.34132813 44.83203125 235.86328125 C44.19523438 236.38792969 43.5584375 236.91257812 42.90234375 237.453125 C36.34239812 241.85365793 31.56365099 242.31757202 23.83203125 242.11328125 C22.8575 242.09974609 21.88296875 242.08621094 20.87890625 242.07226562 C18.48804116 242.03710584 16.09746282 241.983305 13.70703125 241.92578125 C13.70703125 235.98578125 13.70703125 230.04578125 13.70703125 223.92578125 C20.95703125 223.67578125 20.95703125 223.67578125 23.21972656 223.62792969 C26.40480333 223.46516353 28.36464315 223.19122134 30.90637207 221.22071838 C33.09322285 218.4335807 33.20138823 217.10404725 33.18945312 213.59741211 C33.19966492 211.99941017 33.19966492 211.99941017 33.21008301 210.36912537 C33.19310364 208.64726768 33.19310364 208.64726768 33.17578125 206.890625 C33.18283081 205.70159073 33.18988037 204.51255646 33.19714355 203.28749084 C33.22662006 198.20302199 33.21007371 193.11893518 33.19775391 188.03442383 C33.19535863 184.31959528 33.21638053 180.60537748 33.23828125 176.890625 C33.22130188 175.19002174 33.22130188 175.19002174 33.20397949 173.45506287 C33.28752919 160.1099144 38.17905348 150.87508865 46.70703125 140.92578125 C46.248125 140.45269531 45.78921875 139.97960937 45.31640625 139.4921875 C36.56063983 130.05582579 33.43274624 119.53685896 33.3984375 106.82421875 C33.37329695 105.10025675 33.34789867 103.3762985 33.32226562 101.65234375 C33.29348129 98.96875837 33.26942299 96.28523744 33.25073242 93.6015625 C33.22903194 90.98796552 33.18961799 88.37507092 33.1484375 85.76171875 C33.14826378 84.56619888 33.14826378 84.56619888 33.14808655 83.3465271 C33.06237602 78.49813908 32.38253856 75.13020829 29.70703125 70.92578125 C25.83526311 68.98989718 21.06499167 69.4496856 16.796875 69.20703125 C13.70703125 68.92578125 13.70703125 68.92578125 12.70703125 67.92578125 C12.63377957 65.06310558 12.6146492 62.22506225 12.64453125 59.36328125 C12.64904297 58.55697266 12.65355469 57.75066406 12.65820312 56.91992188 C12.67002607 54.92184369 12.68796211 52.92380342 12.70703125 50.92578125 C15.34703125 50.92578125 17.98703125 50.92578125 20.70703125 50.92578125 C1.85883021 21.49793603 -22.12787564 3.71782003 -56.29296875 -4.07421875 C-84.51267353 -9.43167275 -114.38612807 -3.67354552 -138.54296875 11.67578125 C-149.64420689 19.54812741 -163.06028671 29.46041716 -169.29296875 41.92578125 C-170.43894531 41.97476563 -171.58492187 42.02375 -172.765625 42.07421875 C-174.2955941 42.14930926 -175.82554093 42.22485431 -177.35546875 42.30078125 C-178.10763672 42.33171875 -178.85980469 42.36265625 -179.63476562 42.39453125 C-184.48258156 42.64636584 -188.67604918 43.4174649 -193.29296875 44.92578125 C-189.13254412 33.22054512 -179.76506811 23.71542556 -171.29296875 14.92578125 C-170.64972656 14.219375 -170.00648438 13.51296875 -169.34375 12.78515625 C-126.61873623 -32.81290617 -49.41531097 -36.55113586 0 0 Z " fill="#3886E5" transform="translate(373.29296875,112.07421875)"/>
<path d="M0 0 C0 6.27 0 12.54 0 19 C-7.1875 19.1875 -7.1875 19.1875 -9.42260742 19.20776367 C-12.92990891 19.3730639 -14.86555294 19.90092413 -17.69580078 21.98657227 C-20.80660458 26.05487607 -20.69870949 28.93607052 -20.63671875 33.921875 C-20.64709671 34.781297 -20.65747467 35.64071899 -20.66816711 36.52618408 C-20.6977964 39.26786384 -20.6944895 42.00818964 -20.6875 44.75 C-20.69643909 47.47714698 -20.71259625 50.20393446 -20.7389679 52.93096924 C-20.75369154 54.62390181 -20.75780194 56.31697403 -20.74919128 58.00994873 C-20.78646571 65.84210573 -21.98408583 72.92779954 -25.875 79.8125 C-26.61363281 81.15248047 -26.61363281 81.15248047 -27.3671875 82.51953125 C-29.03207174 85.04872143 -30.71535427 87.01596555 -33 89 C-33.66 89 -34.32 89 -35 89 C-34.09507812 90.03447266 -34.09507812 90.03447266 -33.171875 91.08984375 C-26.02395805 99.49441062 -20.89910482 107.18665338 -20.8581543 118.43945312 C-20.85111984 119.52738159 -20.84408539 120.61531006 -20.83683777 121.73620605 C-20.83267349 122.90607056 -20.82850922 124.07593506 -20.82421875 125.28125 C-20.80103042 127.75651901 -20.7769135 130.23177947 -20.75195312 132.70703125 C-20.71676469 136.6112245 -20.68744827 140.51510064 -20.67407227 144.41943359 C-20.65864028 148.18626166 -20.618471 151.95216495 -20.57421875 155.71875 C-20.57612717 156.8886145 -20.57803558 158.058479 -20.58000183 159.26379395 C-20.56351089 160.35172241 -20.54701996 161.43965088 -20.5300293 162.56054688 C-20.52416306 163.5166687 -20.51829681 164.47279053 -20.51225281 165.45788574 C-19.84546701 168.76688797 -18.6436803 169.95603828 -16 172 C-13.26683101 172.45358975 -10.97998192 172.69226624 -8.25 172.75 C-5.8575 172.8325 -3.465 172.915 -1 173 C-1 178.94 -1 184.88 -1 191 C-4.31390989 191.13618808 -7.62211587 191.23467408 -10.9375 191.3125 C-12.32678711 191.3753418 -12.32678711 191.3753418 -13.74414062 191.43945312 C-21.27063278 191.57149685 -26.9657082 189.74843703 -32.55395508 184.55615234 C-38.18263716 178.19202797 -40.10206309 171.67002164 -40.15771484 163.37109375 C-40.16797699 162.26644775 -40.17823914 161.16180176 -40.18881226 160.02368164 C-40.19611359 158.8402417 -40.20341492 157.65680176 -40.2109375 156.4375 C-40.23899465 153.92447253 -40.26765903 151.41145177 -40.296875 148.8984375 C-40.33820342 144.94173286 -40.37509855 140.98515529 -40.40136719 137.02832031 C-40.42893343 133.20611827 -40.47479167 129.38448404 -40.5234375 125.5625 C-40.52669037 124.37906006 -40.52994324 123.19562012 -40.53329468 121.97631836 C-40.55814438 120.31934937 -40.55814438 120.31934937 -40.58349609 118.62890625 C-40.59562637 117.1759314 -40.59562637 117.1759314 -40.60800171 115.69360352 C-41.06731763 112.53742909 -42.28004708 110.65255706 -44 108 C-44 107.34 -44 106.68 -44 106 C-50.08215477 102.83727952 -55.1092396 100.98439434 -62 100 C-62 94.06 -62 88.12 -62 82 C-60.123125 81.5875 -58.24625 81.175 -56.3125 80.75 C-49.89953654 79.12226779 -46.6982935 77.47069521 -42.90649414 71.9543457 C-40.43371536 67.52329641 -40.44820975 63.46167217 -40.49609375 58.48046875 C-40.48667252 57.58185623 -40.47725128 56.68324371 -40.46754456 55.75740051 C-40.4390256 52.90053262 -40.43581018 50.04449821 -40.4375 47.1875 C-40.43387246 44.3413352 -40.42410673 41.49577522 -40.39674377 38.6497345 C-40.38017898 36.88555902 -40.37689977 35.12118578 -40.38975525 33.35697937 C-40.31328587 24.27491213 -38.05872011 15.00586494 -32 8 C-22.13397116 -0.48893495 -12.38763368 -0.22120774 0 0 Z " fill="#3863D3" transform="translate(206,163)"/>
<path d="M0 0 C0.33 0 0.66 0 1 0 C1.19993688 4.64045815 1.34391187 9.27833625 1.43945312 13.92211914 C1.47933014 15.49645724 1.5336574 17.07050596 1.60351562 18.64379883 C2.10211559 30.17392292 0.7650064 36.06346717 -7 45 C-8.73842823 47.38423527 -10.37780776 49.83106259 -12.015625 52.28515625 C-12.88276078 53.57099842 -13.7499487 54.85680543 -14.6171875 56.14257812 C-15.2663916 57.11046265 -15.2663916 57.11046265 -15.92871094 58.09790039 C-16.81263413 59.41218899 -17.70069187 60.72370594 -18.59277344 62.0324707 C-23.61018569 69.39457945 -28.18754617 76.47515222 -31 85 C-31.29116699 85.74515869 -31.58233398 86.49031738 -31.88232422 87.25805664 C-34.014492 92.92020144 -34.3451407 97.99208378 -34.375 104 C-34.7036204 113.69473294 -35.08075638 123.41876367 -40 132 C-43.69268543 134.7069036 -47.30474181 135.70272145 -51.7734375 136.56396484 C-54.23583181 137.04618373 -56.65860261 137.63358327 -59.09375 138.23828125 C-62.71061787 139.13055402 -66.33289407 139.98770511 -69.96484375 140.81640625 C-75.15140217 142.01389816 -80.24270036 143.46336467 -85.34765625 144.96875 C-89.87498186 146.2470537 -94.43232186 147.37606094 -99 148.5 C-104.61558219 149.88288344 -110.20006109 151.30635942 -115.75 152.9375 C-123.18275484 155.11164708 -130.69262675 156.95692373 -138.21191406 158.80639648 C-144.10796482 160.25995706 -149.96991375 161.79494804 -155.8137207 163.44702148 C-158 164 -158 164 -160 164 C-160 157.73 -160 151.46 -160 145 C-158.25976562 144.55269531 -156.51953125 144.10539063 -154.7265625 143.64453125 C-139.01711321 139.60387938 -139.01711321 139.60387938 -123.375 135.3125 C-117.08076961 133.53039862 -110.7601625 131.97290908 -104.38330078 130.51660156 C-98.54835962 129.16852431 -92.80015639 127.57587687 -87.04248047 125.93237305 C-80.04893189 123.96008627 -72.99133494 122.29598287 -65.90332031 120.69946289 C-65.06124023 120.50602295 -64.21916016 120.31258301 -63.3515625 120.11328125 C-62.60729004 119.94610596 -61.86301758 119.77893066 -61.09619141 119.60668945 C-58.87015877 118.96242075 -56.99640548 118.17677405 -55 117 C-53.84969551 114.69939102 -53.84717937 113.29888916 -53.7890625 110.73828125 C-53.14525384 89.41907404 -49.56062181 72.66072332 -37 55 C-36.05523218 53.65287461 -35.11126672 52.30518627 -34.16796875 50.95703125 C-30.3077664 45.45508321 -26.44635882 39.9541759 -22.46484375 34.5390625 C-15.51291039 25.04575827 -9.3664713 15.1012136 -3.26171875 5.04614258 C-2.21049166 3.34135655 -1.11097653 1.6664648 0 0 Z " fill="#3337AD" transform="translate(395,278)"/>
<path d="M0 0 C0 5.94 0 11.88 0 18 C-7.79975749 20.80150925 -15.77117317 22.76409248 -23.81066895 24.73095703 C-36.02497472 27.71945031 -48.21690865 30.75163102 -60.30151367 34.2355957 C-65.20898295 35.62408248 -69.92211124 36.48989245 -75 37 C-75 37.66 -75 38.32 -75 39 C-74.01 39.33 -73.02 39.66 -72 40 C-70.31288577 41.6459651 -68.6454378 43.31237149 -67 45 C-63.07228597 46.96385701 -58.29111232 46.33941001 -54 46 C-50.54494251 44.7660509 -48.68368633 44.03018 -46.65405273 40.97192383 C-44.54887998 38.46218503 -43.2280899 38.25401617 -40.03515625 37.69921875 C-38.58786133 37.44108398 -38.58786133 37.44108398 -37.11132812 37.17773438 C-36.10521484 37.01595703 -35.09910156 36.85417969 -34.0625 36.6875 C-32.55913086 36.41583008 -32.55913086 36.41583008 -31.02539062 36.13867188 C-22.90477679 34.74641186 -22.90477679 34.74641186 -19 36 C-21.08239621 38.72988284 -23.16608512 41.45877634 -25.25 44.1875 C-25.83652344 44.95642578 -26.42304688 45.72535156 -27.02734375 46.51757812 C-28.172631 48.01674627 -29.3216361 49.51308256 -30.47460938 51.00634766 C-31.69328858 52.59913485 -32.87632944 54.21916825 -34.046875 55.84765625 C-36.44269957 58.48785493 -38.78828044 59.72443321 -42 61.25 C-43.03125 61.75015625 -44.0625 62.2503125 -45.125 62.765625 C-54.12755411 66.63085204 -65.49164366 66.45288518 -74.5625 62.875 C-83.44834764 58.55183154 -87.96671787 52.82377668 -93.73828125 44.90625 C-97.78686426 39.70392571 -102.62097346 35.92473531 -108 32.1875 C-109.485 31.1046875 -109.485 31.1046875 -111 30 C-111 29.34 -111 28.68 -111 28 C-110.21278564 27.79955078 -109.42557129 27.59910156 -108.61450195 27.39257812 C-104.84642319 26.43128071 -101.07915303 25.46686606 -97.3125 24.5 C-96.61960876 24.32214966 -95.92671753 24.14429932 -95.21282959 23.96105957 C-84.98551634 21.33125461 -74.79598578 18.58991993 -64.625 15.75 C-55.6863556 13.25593862 -46.74858202 10.91192625 -37.69921875 8.859375 C-32.69715248 7.69733215 -27.75006396 6.35451888 -22.79296875 5.015625 C-18.61899716 3.8979807 -14.43838437 2.81215114 -10.25 1.75 C-9.56993896 1.5746875 -8.88987793 1.399375 -8.18920898 1.21875 C-5.37055507 0.50898869 -2.92053284 0 0 0 Z " fill="#2E208E" transform="translate(356,425)"/>
<path d="M0 0 C5.94 0 11.88 0 18 0 C18.11368897 7.85923095 18.205107 15.71799941 18.25906086 23.57783031 C18.28497731 27.22887808 18.32003756 30.8793264 18.37719727 34.5300293 C18.43217045 38.06384848 18.46155487 41.59709711 18.47438622 45.13131142 C18.48790273 47.11248753 18.52682781 49.0934392 18.56648254 51.07426453 C18.56969274 61.61727778 16.50866398 71.31184225 9.5 79.5 C1.35905115 86.7810629 -10.84708948 88.95869355 -21.1875 91.5 C-23.55760911 92.09770094 -25.92740071 92.69666237 -28.296875 93.296875 C-29.43962891 93.58498047 -30.58238281 93.87308594 -31.75976562 94.16992188 C-36.17070244 95.2999087 -40.55583034 96.51210774 -44.9375 97.75 C-63.63917137 103 -63.63917137 103 -69 103 C-69.34144359 101.31412229 -69.67271803 99.62618407 -70 97.9375 C-70.185625 96.99777344 -70.37125 96.05804688 -70.5625 95.08984375 C-71.04362537 91.69189585 -71.06846277 88.42741764 -71 85 C-69.14761719 84.54560547 -69.14761719 84.54560547 -67.2578125 84.08203125 C-56.65595694 81.46613978 -46.11294494 78.70279819 -35.60644531 75.72851562 C-32.57274488 74.88057987 -29.53276662 74.05729615 -26.4921875 73.234375 C-24.22395378 72.61459998 -21.95572459 71.9948084 -19.6875 71.375 C-18.60702393 71.0857666 -17.52654785 70.7965332 -16.41333008 70.49853516 C-15.39392334 70.21800293 -14.3745166 69.9374707 -13.32421875 69.6484375 C-12.41760498 69.40270996 -11.51099121 69.15698242 -10.5769043 68.90380859 C-7.07647157 67.67608695 -3.95638912 66.468276 -1.87666321 63.27542114 C-0.76839868 60.39886773 -0.71937336 58.02945101 -0.68115234 54.94628906 C-0.66128265 53.72532532 -0.64141296 52.50436157 -0.62094116 51.24639893 C-0.60938995 49.93274353 -0.59783875 48.61908813 -0.5859375 47.265625 C-0.56722054 45.903695 -0.54764672 44.54177652 -0.5272522 43.17987061 C-0.4759805 39.60266933 -0.43632848 36.02543048 -0.39910889 32.44805908 C-0.35903795 28.79470563 -0.30795975 25.14150782 -0.2578125 21.48828125 C-0.16111195 14.32561964 -0.07770651 7.16289747 0 0 Z " fill="#3C41BC" transform="translate(304,306)"/>
<path d="M0 0 C3.90291863 0.46823105 6.78445938 1.77994282 10.18359375 3.703125 C11.18398682 4.26451172 12.18437988 4.82589844 13.21508789 5.40429688 C17.6754217 7.95904523 22.13032773 10.52321689 26.58496094 13.08789062 C29.86450492 14.92413516 33.18192954 16.63886052 36.5390625 18.328125 C51.82794193 26.22786335 51.82794193 26.22786335 53.8203125 31.64453125 C54.24558492 35.89273131 53.70991264 38.10247586 52 42 C49.46557617 44.11303711 49.46557617 44.11303711 46.29296875 45.90234375 C45.72033295 46.23228333 45.14769714 46.5622229 44.55770874 46.90216064 C42.71614741 47.95578732 40.85968554 48.97876275 39 50 C37.77594715 50.68868085 36.55255565 51.37853853 35.32983398 52.06958008 C31.61113196 54.15973254 27.86984977 56.20717864 24.125 58.25 C22.21902027 59.29358931 20.3135625 60.3381234 18.40838623 61.38317871 C16.63170395 62.35697641 14.85347644 63.32795321 13.07519531 64.29882812 C10.62389034 65.65486917 8.2097177 67.04917607 5.8046875 68.484375 C3 70 3 70 0 70 C-1.03275341 67.73392948 -2.05133551 65.46318061 -3.0625 63.1875 C-3.35705078 62.54490234 -3.65160156 61.90230469 -3.95507812 61.24023438 C-6.11328125 56.33984375 -6.11328125 56.33984375 -5 53 C-2.67747787 51.5376017 -0.40301033 50.24619571 2.02734375 48.98828125 C3.08351646 48.42864937 3.08351646 48.42864937 4.161026 47.85771179 C5.65077706 47.07076476 7.14299631 46.28847525 8.63745117 45.51049805 C10.93004002 44.31638559 13.2144928 43.10776944 15.49804688 41.89648438 C16.94485725 41.13455157 18.39210849 40.37345522 19.83984375 39.61328125 C20.52634506 39.25083817 21.21284637 38.88839508 21.92015076 38.51496887 C26.76714059 36 26.76714059 36 29 36 C29 35.34 29 34.68 29 34 C28.14317627 33.73880371 27.28635254 33.47760742 26.40356445 33.20849609 C20.99068096 31.28655554 16.07911905 28.43292713 11.06665039 25.66015625 C9.18223117 24.62209759 7.28785614 23.60400334 5.39257812 22.5859375 C4.19204799 21.92567844 2.99215442 21.2642603 1.79296875 20.6015625 C0.7052417 20.00682129 -0.38248535 19.41208008 -1.50317383 18.79931641 C-4 17 -4 17 -4.90844727 14.96118164 C-5.04765152 11.97924086 -4.11361094 9.61129166 -3.125 6.8125 C-2.75632812 5.74644531 -2.38765625 4.68039063 -2.0078125 3.58203125 C-1 1 -1 1 0 0 Z " fill="#828DE8" transform="translate(333,218)"/>
<path d="M0 0 C0.89630674 1.88585345 1.76633875 3.78421077 2.625 5.6875 C3.35589844 7.27111328 3.35589844 7.27111328 4.1015625 8.88671875 C5.18011594 12.62414089 4.82575486 13.64021595 3 17 C0.86450195 18.60571289 0.86450195 18.60571289 -1.76171875 19.97265625 C-2.71626953 20.47990234 -3.67082031 20.98714844 -4.65429688 21.50976562 C-5.65525391 22.02216797 -6.65621094 22.53457031 -7.6875 23.0625 C-9.64996223 24.09462886 -11.61220664 25.127172 -13.57421875 26.16015625 C-14.50411621 26.64371582 -15.43401367 27.12727539 -16.39208984 27.62548828 C-19.6435075 29.33916376 -22.82540402 31.14852234 -26 33 C-26 33.66 -26 34.32 -26 35 C-24.86570557 35.60473145 -24.86570557 35.60473145 -23.70849609 36.22167969 C-20.87807302 37.73256933 -18.04915283 39.24622728 -15.22119141 40.76171875 C-14.00172595 41.41450851 -12.78168385 42.06622233 -11.56103516 42.71679688 C-9.79695331 43.65725588 -8.03517536 44.60203235 -6.2734375 45.546875 C-4.68668213 46.39523926 -4.68668213 46.39523926 -3.06787109 47.26074219 C0.07380737 49.04184336 3.02104157 50.96197078 6 53 C5.34309381 56.78239671 4.279869 60.21841526 2.9375 63.8125 C2.57527344 64.78832031 2.21304688 65.76414062 1.83984375 66.76953125 C1.56269531 67.50558594 1.28554688 68.24164063 1 69 C-2.95551229 68.39782154 -5.92956128 67.16742714 -9.4375 65.26171875 C-10.48824707 64.69404785 -11.53899414 64.12637695 -12.62158203 63.54150391 C-13.73645996 62.92968262 -14.85133789 62.31786133 -16 61.6875 C-17.14452637 61.06536621 -18.28905273 60.44323242 -19.46826172 59.80224609 C-30.06859607 54.02687247 -40.55983791 48.05953333 -51 42 C-51.35747622 39.65348943 -51.60866631 37.36088686 -51.8125 35 C-51.96332031 33.700625 -52.11414063 32.40125 -52.26953125 31.0625 C-51.87254532 27.85726341 -51.08221276 27.06715835 -48.53613281 24.98730469 C-45.68581114 23.21417464 -42.82493281 21.56443714 -39.86227417 19.99145508 C-38.0611176 19.03253837 -36.28484248 18.03937891 -34.51196289 17.02929688 C-31.06447414 15.07481506 -27.59822255 13.15832115 -24.125 11.25 C-21.79375226 9.96447972 -19.46334659 8.67743917 -17.1328125 7.390625 C-16.06063477 6.80216797 -14.98845703 6.21371094 -13.88378906 5.60742188 C-11.53388416 4.29758663 -9.23016196 2.94013734 -6.9296875 1.546875 C-4 0 -4 0 0 0 Z " fill="#8F98EB" transform="translate(259,219)"/>
<path d="M0 0 C3.38254369 3.2663444 5.7889789 6.66917186 8.1875 10.6875 C12.68292647 18.04388913 17.45279551 25.19235473 22.3125 32.3125 C23.40800171 33.9202832 23.40800171 33.9202832 24.52563477 35.56054688 C27.90248588 40.50523508 31.2970709 45.43580216 34.73828125 50.3359375 C44.69873851 64.55753792 55 79.94917041 55 98 C52.2092793 98.83661862 49.41751988 99.66942737 46.625 100.5 C45.8309375 100.73847656 45.036875 100.97695313 44.21875 101.22265625 C43.45820313 101.44824219 42.69765625 101.67382812 41.9140625 101.90625 C41.2123291 102.11572266 40.5105957 102.32519531 39.78759766 102.54101562 C38 103 38 103 36 103 C35.9484375 102.1028125 35.896875 101.205625 35.84375 100.28125 C34.39954983 84.39504811 26.8145535 72.98497479 18.125 59.9375 C17.43132324 58.88755859 16.73764648 57.83761719 16.02294922 56.75585938 C13.11506221 52.40667185 10.27156914 48.16006876 6.7421875 44.2890625 C-3.79231232 32.23883321 -0.85426069 15.02578836 0 0 Z " fill="#3B47BF" transform="translate(196,278)"/>
<path d="M0 0 C0.33 0 0.66 0 1 0 C1.06731323 1.51182861 1.06731323 1.51182861 1.13598633 3.05419922 C1.30784294 6.83823723 1.49640263 10.62129845 1.68969727 14.40429688 C1.77066514 16.0333126 1.84726367 17.66255219 1.91918945 19.29199219 C2.50382049 37.85028857 2.50382049 37.85028857 12.25 53.0625 C14 55 14 55 14.6875 57.3125 C13.89471739 60.41155929 13.06113842 61.07019899 10.75 63.1875 C5.30176065 68.22767284 3.17859469 74.79789526 2 82 C1.93027661 84.41835565 1.91552614 86.83855176 1.9375 89.2578125 C1.94651965 90.69433501 1.95538427 92.1308585 1.96411133 93.56738281 C1.9703653 94.31266235 1.97661926 95.05794189 1.98306274 95.82580566 C2.13964349 117.08128974 2.13964349 117.08128974 1.8125 127.25 C1.80669922 127.9733252 1.80089844 128.69665039 1.79492188 129.44189453 C1.55581851 134.91337655 -0.26853699 137.26287468 -4 141 C-6.70183055 142.35091528 -9.11808206 142.33858058 -12.125 142.5625 C-15.033125 142.7790625 -15.033125 142.7790625 -18 143 C-18 146.96 -18 150.92 -18 155 C-4.35198758 155.97133814 -4.35198758 155.97133814 7.69921875 150.59375 C15.88799989 142.18686573 15.33587003 131.20339342 15.21484375 120.24414062 C15.18574399 118.43357992 15.15578862 116.62303277 15.125 114.8125 C15.08974443 112.09854579 15.05895668 109.38464334 15.03366089 106.670578 C15.01689958 104.99204285 14.99394343 103.31355366 14.96365356 101.63520813 C14.9043522 96.96805642 15.21436368 92.60306237 16 88 C16.33 88 16.66 88 17 88 C17.10173363 95.40141002 17.1716057 102.80263853 17.21972656 110.20458984 C17.23979516 112.72060891 17.2670563 115.23658161 17.30175781 117.75244141 C17.35048312 121.37674428 17.37301722 125.00042841 17.390625 128.625 C17.41127014 129.74302002 17.43191528 130.86104004 17.45318604 132.01293945 C17.45536366 139.65668338 16.41853009 145.02732462 11.2890625 150.98828125 C10.73992187 151.42527344 10.19078125 151.86226562 9.625 152.3125 C8.80902344 152.98732422 8.80902344 152.98732422 7.9765625 153.67578125 C1.52125806 158.00058008 -3.28190297 158.38813061 -10.875 158.1875 C-11.84953125 158.17396484 -12.8240625 158.16042969 -13.828125 158.14648438 C-16.21899009 158.11132459 -18.60956843 158.05752375 -21 158 C-21 152.06 -21 146.12 -21 140 C-13.75 139.75 -13.75 139.75 -11.48730469 139.70214844 C-8.30222792 139.53938228 -6.3423881 139.26544009 -3.80065918 137.29493713 C-1.6138084 134.50779945 -1.50564302 133.178266 -1.51757812 129.67163086 C-1.51077026 128.60629623 -1.5039624 127.54096161 -1.49694824 126.44334412 C-1.50826782 125.295439 -1.5195874 124.14753387 -1.53125 122.96484375 C-1.52067566 121.18129234 -1.52067566 121.18129234 -1.5098877 119.36170959 C-1.48041119 114.27724074 -1.49695754 109.19315393 -1.50927734 104.10864258 C-1.51167262 100.39381403 -1.49065072 96.67959623 -1.46875 92.96484375 C-1.48006958 91.83110825 -1.49138916 90.69737274 -1.50305176 89.52928162 C-1.41950206 76.18413315 3.47202223 66.9493074 12 57 C11.54109375 56.52691406 11.0821875 56.05382812 10.609375 55.56640625 C2.52972428 46.85871545 -0.17991115 38.64520372 -0.09765625 26.85546875 C-0.0962413 26.08568192 -0.09482635 25.31589508 -0.09336853 24.52278137 C-0.08779606 22.07764712 -0.07524871 19.63260632 -0.0625 17.1875 C-0.05748144 15.52408987 -0.05291915 13.8606783 -0.04882812 12.19726562 C-0.03783566 8.13147472 -0.0205901 4.06575317 0 0 Z " fill="#4B57B0" transform="translate(408,196)"/>
<path d="M0 0 C0.66 0.33 1.32 0.66 2 1 C1.25 8.75 1.25 8.75 -1 11 C-1.84405746 13.13064184 -1.84405746 13.13064184 -2.55078125 15.62890625 C-2.83759766 16.58345703 -3.12441406 17.53800781 -3.41992188 18.52148438 C-3.71447266 19.52501953 -4.00902344 20.52855469 -4.3125 21.5625 C-4.59544922 22.50802734 -4.87839844 23.45355469 -5.16992188 24.42773438 C-5.78151382 26.47677081 -6.37873817 28.5301288 -6.96459961 30.58666992 C-7.6761392 32.93235136 -8.47145245 35.25372706 -9.33422852 37.5480957 C-14.36720849 51.41477732 -13.55700561 65.49642453 -13.3125 80.0625 C-13.28736756 82.68292126 -13.26456321 85.30336593 -13.24414062 87.92382812 C-13.18958169 94.28314005 -13.10358256 100.64130542 -13 107 C-8.71 106.01 -4.42 105.02 0 104 C-0.01571045 102.57848633 -0.0314209 101.15697266 -0.04760742 99.69238281 C-0.10230434 94.36968757 -0.13649369 89.04701669 -0.16479492 83.72412109 C-0.17979151 81.4294821 -0.20019551 79.13487133 -0.22631836 76.84033203 C-0.2631058 73.52369175 -0.2798182 70.20743358 -0.29296875 66.890625 C-0.30845261 65.88074524 -0.32393646 64.87086548 -0.33988953 63.8303833 C-0.34158526 56.49562849 0.92726175 50.02115999 3 43 C3.24784744 42.1557547 3.49569489 41.3115094 3.75105286 40.44168091 C4.48626067 38.01365052 5.25177639 35.59775639 6.03125 33.18359375 C6.30843872 32.31984634 6.58562744 31.45609894 6.87121582 30.56617737 C7.45058028 28.76665447 8.0320931 26.96782188 8.61572266 25.16967773 C9.50730543 22.41492821 10.38462856 19.65587746 11.26171875 16.89648438 C11.82986592 15.13774173 12.39884588 13.37926785 12.96875 11.62109375 C13.22821411 10.79927109 13.48767822 9.97744843 13.75500488 9.13072205 C14.00536499 8.36885086 14.2557251 7.60697968 14.51367188 6.82202148 C14.72890503 6.15428207 14.94413818 5.48654266 15.16589355 4.79856873 C16.12367029 2.73333199 17.31516579 1.51004015 19 0 C16.73201649 8.61611383 14.15624327 17.12151494 11.5 25.625 C11.10941406 26.883125 10.71882813 28.14125 10.31640625 29.4375 C7.12604657 39.685322 7.12604657 39.685322 6.2147522 41.96038818 C3.61961444 48.71889557 3.54295106 55.1305426 3.5234375 62.3125 C3.50785797 63.56256836 3.49227844 64.81263672 3.47622681 66.10058594 C3.43695168 69.39464842 3.40948407 72.6885047 3.38873291 75.98272705 C3.3569575 80.65032231 3.30570087 85.31771591 3.25234985 89.98510742 C3.22506453 92.46567928 3.20373898 94.94632494 3.18881226 97.42700195 C3.17341904 99.09508911 3.17341904 99.09508911 3.15771484 100.796875 C3.15121918 101.78010742 3.14472351 102.76333984 3.13803101 103.77636719 C3 106 3 106 2 107 C0.36197128 107.36978426 -1.28587044 107.69668783 -2.9375 108 C-6.58532599 108.6503519 -6.58532599 108.6503519 -10 110 C-11.99960012 110.039992 -14.00047242 110.04346799 -16 110 C-16.11697387 102.32311898 -16.20525312 94.6463328 -16.25906086 86.96875763 C-16.28491479 83.40186094 -16.31985406 79.83558343 -16.37719727 76.26904297 C-16.83259791 47.1309307 -16.83259791 47.1309307 -11 33 C-9.99183443 30.0868875 -9.05323381 27.15197212 -8.10546875 24.21875 C-7.62243837 22.76626189 -7.13742415 21.31443196 -6.65039062 19.86328125 C-6.4103833 19.14736816 -6.17037598 18.43145508 -5.9230957 17.69384766 C-5.68034912 16.96987793 -5.43760254 16.2459082 -5.1875 15.5 C-4.68019507 13.98312089 -4.17303304 12.46619398 -3.66601562 10.94921875 C-2.44564677 7.29892948 -1.2233821 3.64928044 0 0 Z " fill="#6A6EBF" transform="translate(286,260)"/>
<path d="M0 0 C2.82744755 2.82744755 2.31432739 4.77879745 2.4140625 8.73828125 C2.43342865 9.41489304 2.4527948 10.09150482 2.4727478 10.78862 C2.53254526 12.96311709 2.57874255 15.1376772 2.625 17.3125 C2.66321532 18.73504905 2.70226909 20.15757584 2.7421875 21.58007812 C2.94397678 29.13263036 3.0194426 36.67710496 2.99951172 44.23266602 C2.8011389 58.45033199 2.8011389 58.45033199 9.421875 70.51953125 C15.27231295 75.75175282 20.81431046 76.34093283 28.3125 76.625 C29.14845703 76.66367187 29.98441406 76.70234375 30.84570312 76.7421875 C32.89679259 76.83595159 34.94836515 76.91904245 37 77 C37 72.38 37 67.76 37 63 C33.9371875 63.0928125 33.9371875 63.0928125 30.8125 63.1875 C25.90893105 63.336093 22.93240799 63.06496505 19 60 C18.1875 57.3125 18.1875 57.3125 18 55 C19.0209375 56.2065625 19.0209375 56.2065625 20.0625 57.4375 C25.1138488 61.78829677 32.74871784 60.83549257 39 61 C39 66.94 39 72.88 39 79 C35.68609011 79.13618808 32.37788413 79.23467408 29.0625 79.3125 C28.13630859 79.35439453 27.21011719 79.39628906 26.25585938 79.43945312 C18.72936722 79.57149685 13.0342918 77.74843703 7.44604492 72.55615234 C1.76060469 66.12785382 -0.1321063 59.57993949 -0.11352539 51.19995117 C-0.11344986 50.05914597 -0.11337433 48.91834076 -0.11329651 47.7429657 C-0.10813522 46.52196671 -0.10297394 45.30096771 -0.09765625 44.04296875 C-0.0962413 42.78486893 -0.09482635 41.5267691 -0.09336853 40.23054504 C-0.08872573 36.89821471 -0.07975228 33.56595368 -0.06866455 30.23364258 C-0.05840503 26.82829383 -0.05386121 23.4229379 -0.04882812 20.01757812 C-0.0378083 13.34503302 -0.021077 6.67252051 0 0 Z " fill="#5967BB" transform="translate(166,275)"/>
<path d="M0 0 C0 0.66 0 1.32 0 2 C0.69867188 2.04898438 1.39734375 2.09796875 2.1171875 2.1484375 C3.48230469 2.26058594 3.48230469 2.26058594 4.875 2.375 C5.77992188 2.44460937 6.68484375 2.51421875 7.6171875 2.5859375 C10 3 10 3 12 5 C8.76839914 6.07720029 8.09589043 5.96605369 4.98046875 5.0390625 C4.20509766 4.81476563 3.42972656 4.59046875 2.63085938 4.359375 C1.82455078 4.11703125 1.01824219 3.8746875 0.1875 3.625 C-1.40147758 3.15591011 -2.9913088 2.68970088 -4.58203125 2.2265625 C-5.28561768 2.01596191 -5.9892041 1.80536133 -6.71411133 1.58837891 C-33.8770255 -5.40325018 -64.60366811 1.13730582 -88.3984375 14.9765625 C-95.34651415 19.45976877 -101.70694037 24.64842173 -108 30 C-108.33 29.01 -108.66 28.02 -109 27 C-108.01 27 -107.02 27 -106 27 C-105.74605469 26.40058594 -105.49210938 25.80117187 -105.23046875 25.18359375 C-103.85379695 22.74054761 -102.58647666 21.67528109 -100.3125 20.0625 C-99.58804688 19.546875 -98.86359375 19.03125 -98.1171875 18.5 C-97.41851562 18.005 -96.71984375 17.51 -96 17 C-94.4840625 15.7934375 -94.4840625 15.7934375 -92.9375 14.5625 C-67.06084906 -3.68611325 -30.05955205 -7.52608755 0 0 Z " fill="#48A9E7" transform="translate(326,107)"/>
<path d="M0 0 C0.33 0 0.66 0 1 0 C1.10173363 7.40141002 1.1716057 14.80263853 1.21972656 22.20458984 C1.23979516 24.72060891 1.2670563 27.23658161 1.30175781 29.75244141 C1.35048312 33.37674428 1.37301722 37.00042841 1.390625 40.625 C1.41127014 41.74302002 1.43191528 42.86104004 1.45318604 44.01293945 C1.45536366 51.65668338 0.41853009 57.02732462 -4.7109375 62.98828125 C-5.26007813 63.42527344 -5.80921875 63.86226563 -6.375 64.3125 C-6.91898437 64.76238281 -7.46296875 65.21226562 -8.0234375 65.67578125 C-14.47874194 70.00058008 -19.28190297 70.38813061 -26.875 70.1875 C-27.84953125 70.17396484 -28.8240625 70.16042969 -29.828125 70.14648438 C-32.21899009 70.11132459 -34.60956843 70.05752375 -37 70 C-37 64.06 -37 58.12 -37 52 C-36.34 52 -35.68 52 -35 52 C-34.67 56.95 -34.34 61.9 -34 67 C-20.34752336 67.96271331 -20.34752336 67.96271331 -8.30078125 62.59375 C-0.11200011 54.18686573 -0.66412997 43.20339342 -0.78515625 32.24414062 C-0.81425601 30.43357992 -0.84421138 28.62303277 -0.875 26.8125 C-0.91025557 24.09854579 -0.94104332 21.38464334 -0.96633911 18.670578 C-0.98310042 16.99204285 -1.00605657 15.31355366 -1.03634644 13.63520813 C-1.0956478 8.96805642 -0.78563632 4.60306237 0 0 Z " fill="#3C459F" transform="translate(424,284)"/>
<path d="M0 0 C0.66 0.721875 1.32 1.44375 2 2.1875 C8.01952077 8.13919518 12.39762749 9.92470344 21 11 C21 16.61 21 22.22 21 28 C19.47375 28.2475 17.9475 28.495 16.375 28.75 C11.62972338 29.68294689 8.82167593 31.11044015 5 34 C3.515 34.495 3.515 34.495 2 35 C0.83046584 37.42383077 0.83046584 37.42383077 0 40 C-0.33 40.66 -0.66 41.32 -1 42 C-1.11970061 43.84781542 -1.1772696 45.6997936 -1.20532227 47.55126953 C-1.22526749 48.71232208 -1.24521271 49.87337463 -1.26576233 51.0696106 C-1.28247482 52.32796722 -1.29918732 53.58632385 -1.31640625 54.8828125 C-1.33718735 56.16735321 -1.35796844 57.45189392 -1.37937927 58.77536011 C-1.43459049 62.19149359 -1.48400388 65.60768745 -1.53222656 69.02392578 C-1.58244857 72.50949481 -1.63813097 75.99497609 -1.69335938 79.48046875 C-1.80092928 86.32023642 -1.90237684 93.16008334 -2 100 C-2.33 100 -2.66 100 -3 100 C-3.24747057 92.57662118 -3.46654168 85.15296268 -3.65021229 77.72771454 C-3.73639066 74.27915524 -3.83202909 70.83142047 -3.94995117 67.38378906 C-4.0853498 63.41269001 -4.17841075 59.44112109 -4.26953125 55.46875 C-4.31721146 54.24136108 -4.36489166 53.01397217 -4.41401672 51.74938965 C-4.57649674 42.5048341 -2.55748364 37.90455521 3.5625 31.1875 C7.9480677 27.76236005 13.69274447 27.12042061 19 26 C19 21.71 19 17.42 19 13 C17.824375 12.9175 16.64875 12.835 15.4375 12.75 C9.60141675 12.00628674 5.66130256 9.74649757 1.5625 5.4375 C0 3 0 3 0 0 Z " fill="#6173C1" transform="translate(428,234)"/>
<path d="M0 0 C-2.74542585 1.4683754 -5.31949847 2.45371238 -8.33789062 3.20507812 C-9.18557007 3.41869995 -10.03324951 3.63232178 -10.90661621 3.85241699 C-12.26768494 4.18843933 -12.26768494 4.18843933 -13.65625 4.53125 C-14.59553345 4.76783325 -15.53481689 5.0044165 -16.50256348 5.24816895 C-20.51545567 6.25876771 -24.53103675 7.2584969 -28.54638672 8.25927734 C-31.47979206 8.99203429 -34.41178437 9.7302573 -37.34375 10.46875 C-38.25112915 10.69276489 -39.1585083 10.91677979 -40.09338379 11.14758301 C-40.94106323 11.36120483 -41.78874268 11.57482666 -42.66210938 11.79492188 C-43.40505249 11.97986206 -44.14799561 12.16480225 -44.91345215 12.35534668 C-47.38659086 13.0572456 -47.38659086 13.0572456 -51 15 C-51 19.29 -51 23.58 -51 28 C-46.94726562 26.828125 -46.94726562 26.828125 -42.89453125 25.65625 C-40.14654124 25.03322392 -37.80401584 24.87697188 -35 25 C-37.74004941 27.74004941 -40.85050373 28.20409907 -44.5 29.125 C-45.18964844 29.30675781 -45.87929687 29.48851562 -46.58984375 29.67578125 C-51.69754464 31 -51.69754464 31 -54 31 C-54 24.73 -54 18.46 -54 12 C-52.25976562 11.55269531 -50.51953125 11.10539062 -48.7265625 10.64453125 C-31.55981362 6.22300604 -31.55981362 6.22300604 -14.47119141 1.51098633 C-4.20309348 -1.40103116 -4.20309348 -1.40103116 0 0 Z " fill="#37318F" transform="translate(289,411)"/>
<path d="M0 0 C0 6.27 0 12.54 0 19 C-2.35125 19.061875 -4.7025 19.12375 -7.125 19.1875 C-13.50176093 19.46382287 -13.50176093 19.46382287 -18.9375 22.5625 C-19.618125 23.366875 -20.29875 24.17125 -21 25 C-20.8125 22.6875 -20.8125 22.6875 -20 20 C-14.42486004 15.65467032 -8.77702477 16.79463561 -2 17 C-2 12.05 -2 7.1 -2 2 C-3.14726562 2.14824219 -4.29453125 2.29648438 -5.4765625 2.44921875 C-8.38516314 2.81519737 -11.2914759 3.12968558 -14.2109375 3.39453125 C-15.24154297 3.49797852 -15.24154297 3.49797852 -16.29296875 3.60351562 C-17.70309758 3.74505764 -19.1147285 3.87224214 -20.52734375 3.98632812 C-22.83064817 4.19123367 -22.83064817 4.19123367 -26 5 C-27.32170521 6.76232747 -27.32170521 6.76232747 -28 9 C-29.33404116 10.6179937 -30.71211239 12.20038133 -32.125 13.75 C-33.21167969 14.94882813 -33.21167969 14.94882813 -34.3203125 16.171875 C-34.87460938 16.77515625 -35.42890625 17.3784375 -36 18 C-36.33 17.34 -36.66 16.68 -37 16 C-34.34949259 9.23663626 -29.29105818 5.24699777 -23 2 C-15.54748248 -0.82681699 -7.869763 -0.14053148 0 0 Z " fill="#5395DC" transform="translate(206,163)"/>
<path d="M0 0 C5.84006708 0.97860584 10.83397185 2.64038318 15 7 C16.73293354 12.08204269 16.559121 15.89279892 15 21 C12.54541016 23.14916992 12.54541016 23.14916992 9.3515625 24.91796875 C8.77616226 25.24531509 8.20076202 25.57266144 7.60792542 25.90992737 C6.3794669 26.60488849 5.14487545 27.28910225 3.90487671 27.96325684 C2.01563118 28.99149261 0.14585477 30.04869726 -1.72143555 31.11621094 C-4.85047508 32.89863625 -7.99603704 34.64867551 -11.15112305 36.38452148 C-13.09551767 37.45568945 -15.03510043 38.53525021 -16.97460938 39.61523438 C-18.2236801 40.30519145 -19.47301884 40.99466358 -20.72265625 41.68359375 C-22.38953491 42.60483032 -22.38953491 42.60483032 -24.09008789 43.54467773 C-26.4652457 44.73255555 -28.40909993 45.52824766 -31 46 C-30 43 -30 43 -27.140625 41.37890625 C-25.84745903 40.76555565 -24.55022275 40.16074576 -23.25 39.5625 C-15.26460214 35.75195987 -7.63246969 31.43553858 -0.00878906 26.94946289 C0.84489258 26.4518042 1.69857422 25.95414551 2.578125 25.44140625 C3.33512695 24.99482666 4.09212891 24.54824707 4.87207031 24.08813477 C6.92279361 23.03948014 8.75017049 22.4534713 11 22 C11 21.34 11 20.68 11 20 C11.66 20 12.32 20 13 20 C13 16.04 13 12.08 13 8 C10.525 7.01 10.525 7.01 8 6 C6.54118985 5.18276081 5.10170721 4.32970229 3.6875 3.4375 C2.99011719 3.00308594 2.29273438 2.56867188 1.57421875 2.12109375 C0.79498047 1.56615234 0.79498047 1.56615234 0 1 C0 0.67 0 0.34 0 0 Z " fill="#6D78CB" transform="translate(370,239)"/>
<path d="M0 0 C0.33 0 0.66 0 1 0 C1.04487549 1.00788574 1.08975098 2.01577148 1.13598633 3.05419922 C1.30784294 6.83823723 1.49640263 10.62129845 1.68969727 14.40429688 C1.77066514 16.0333126 1.84726367 17.66255219 1.91918945 19.29199219 C2.50382049 37.85028857 2.50382049 37.85028857 12.25 53.0625 C14 55 14 55 14.6875 57.3125 C13.89471739 60.41155929 13.06113842 61.07019899 10.75 63.1875 C6.44245793 67.13680835 4.7744183 71.52244786 3 77 C2.34 77 1.68 77 1 77 C0.67 77.99 0.34 78.98 0 80 C0.60528297 70.51723342 5.75288077 63.8282466 12 57 C11.54109375 56.52691406 11.0821875 56.05382812 10.609375 55.56640625 C2.52972428 46.85871545 -0.17991115 38.64520372 -0.09765625 26.85546875 C-0.09553383 25.7007885 -0.09553383 25.7007885 -0.09336853 24.52278137 C-0.08779606 22.07764712 -0.07524871 19.63260632 -0.0625 17.1875 C-0.05748144 15.52408987 -0.05291915 13.8606783 -0.04882812 12.19726562 C-0.03783566 8.13147472 -0.0205901 4.06575317 0 0 Z " fill="#4D69BF" transform="translate(408,196)"/>
<path d="M0 0 C-0.33 0.66 -0.66 1.32 -1 2 C-2.75 1.5625 -4.5 1.125 -6.25 0.6875 C-7.90902344 0.27757813 -7.90902344 0.27757813 -9.6015625 -0.140625 C-11.68615473 -0.66776327 -13.76589733 -1.21521082 -15.8359375 -1.796875 C-36.47520095 -7.46255516 -57.89149933 -7.12819358 -78.65576172 -2.28466797 C-79.43193848 -2.10564941 -80.20811523 -1.92663086 -81.0078125 -1.7421875 C-81.68473145 -1.5757373 -82.36165039 -1.40928711 -83.05908203 -1.23779297 C-85.28364398 -0.96524915 -86.87487094 -1.3366752 -89 -2 C-59.74590737 -10.93665985 -28.72600656 -11.18113713 0 0 Z " fill="#53B3E9" transform="translate(343,96)"/>
<path d="M0 0 C0.680625 0.804375 1.36125 1.60875 2.0625 2.4375 C7.1138488 6.78829677 14.74871784 5.83549257 21 6 C21 11.94 21 17.88 21 24 C17.68609011 24.13618808 14.37788413 24.23467408 11.0625 24.3125 C10.13630859 24.35439453 9.21011719 24.39628906 8.25585938 24.43945312 C0.54497153 24.57473186 -4.93812555 22.57900616 -10.74975586 17.45825195 C-12 16 -12 16 -12 14 C-9.45828796 15.17309786 -7.27116256 16.4908497 -4.9375 18.0625 C-1.44334218 20.36715729 1.13810909 21.11323946 5.23046875 21.31640625 C6.03291016 21.35830078 6.83535156 21.40019531 7.66210938 21.44335938 C8.49548828 21.48267578 9.32886719 21.52199219 10.1875 21.5625 C11.03248047 21.60568359 11.87746094 21.64886719 12.74804688 21.69335938 C14.83184433 21.79931518 16.91590103 21.9001502 19 22 C19 17.38 19 12.76 19 8 C15.9371875 8.0928125 15.9371875 8.0928125 12.8125 8.1875 C7.90893105 8.336093 4.93240799 8.06496505 1 5 C0.1875 2.3125 0.1875 2.3125 0 0 Z " fill="#3A3F9D" transform="translate(184,330)"/>
<path d="M0 0 C5.94 0 11.88 0 18 0 C18 20.46 18 40.92 18 62 C17.67 62 17.34 62 17 62 C16.98969254 61.36995056 16.97938507 60.73990112 16.96876526 60.09075928 C16.86064059 53.53712715 16.74604726 46.98363085 16.62768555 40.43017578 C16.58435588 37.98391561 16.54267939 35.53762558 16.50268555 33.09130859 C16.44493562 29.57640582 16.38125438 26.06165309 16.31640625 22.546875 C16.29969376 21.4519574 16.28298126 20.35703979 16.26576233 19.22894287 C16.24581711 18.20818665 16.22587189 17.18743042 16.20532227 16.13574219 C16.18200584 14.79005157 16.18200584 14.79005157 16.15821838 13.41717529 C16.0923734 11.04967204 16.0923734 11.04967204 15.42466736 9.05401611 C15 7 15 7 16 1 C9.565 1.495 9.565 1.495 3 2 C2.67 10.58 2.34 19.16 2 28 C1.67 28 1.34 28 1 28 C-0.05838127 21.99139451 -0.11662571 16.15372439 -0.0625 10.0625 C-0.05798828 9.09248047 -0.05347656 8.12246094 -0.04882812 7.12304688 C-0.03713169 4.74867094 -0.01919941 2.37432712 0 0 Z " fill="#7C7FC9" transform="translate(304,306)"/>
<path d="M0 0 C0.33 0 0.66 0 1 0 C1.12391876 4.75047352 1.21448561 9.49999961 1.2746582 14.25170898 C1.29974959 15.86678461 1.33383126 17.48174726 1.37719727 19.09643555 C1.43809286 21.42264706 1.46626124 23.74735359 1.48828125 26.07421875 C1.51408768 26.79212082 1.5398941 27.51002289 1.56648254 28.24967957 C1.56874045 32.31718551 1.13706717 33.83775426 -1.53051758 36.99536133 C-2.34544678 37.65689209 -3.16037598 38.31842285 -4 39 C-3.49396008 36.83125748 -3.00016187 35.00032373 -2 33 C-1.91550372 31.2595583 -1.89276976 29.51590278 -1.90234375 27.7734375 C-1.90717773 26.2265625 -1.90717773 26.2265625 -1.91210938 24.6484375 C-1.92048828 23.56820313 -1.92886719 22.48796875 -1.9375 21.375 C-1.94201172 20.28703125 -1.94652344 19.1990625 -1.95117188 18.078125 C-1.96298224 15.38536211 -1.97945222 12.69270812 -2 10 C-2.54269531 10.7940625 -3.08539063 11.588125 -3.64453125 12.40625 C-4.71767578 13.93765625 -4.71767578 13.93765625 -5.8125 15.5 C-6.52019531 16.5209375 -7.22789062 17.541875 -7.95703125 18.59375 C-8.63121094 19.3878125 -9.30539062 20.181875 -10 21 C-10.99 21 -11.98 21 -13 21 C-10.85996171 17.49642498 -8.7120251 13.99776127 -6.5625 10.5 C-5.95083984 9.49839844 -5.33917969 8.49679687 -4.70898438 7.46484375 C-4.12568359 6.51738281 -3.54238281 5.56992187 -2.94140625 4.59375 C-2.40201416 3.71396484 -1.86262207 2.83417969 -1.30688477 1.92773438 C-0.87561279 1.29158203 -0.44434082 0.65542969 0 0 Z " fill="#5164BA" transform="translate(395,278)"/>
<path d="M0 0 C-0.5775 0.30550781 -1.155 0.61101562 -1.75 0.92578125 C-5.187613 3.04444899 -7.50880701 4.72445141 -8.98828125 8.56640625 C-9.37089011 11.88081313 -9.22557229 13.88481808 -8 17 C-4.74413177 20.03400327 -1.07619631 21.95193862 2.87158203 23.91845703 C6.08709586 25.55240131 9.21139159 27.34253595 12.35205078 29.11499023 C15.88628344 31.10444269 19.44290076 33.05177954 23 35 C20 36 20 36 17.13671875 34.76831055 C15.99847656 34.14738525 14.86023438 33.52645996 13.6875 32.88671875 C13.07737061 32.55710648 12.46724121 32.2274942 11.83862305 31.88789368 C9.88714974 30.83046606 7.94374376 29.7590572 6 28.6875 C4.69058869 27.97632072 3.38069793 27.26602344 2.0703125 26.55664062 C-7.3183796 21.4544136 -7.3183796 21.4544136 -11 19 C-11.88697422 13.90140672 -11.88387889 9.09887633 -11 4 C-7.95440102 0.1436513 -4.72463022 -1.57487674 0 0 Z " fill="#6E7ACA" transform="translate(219,242)"/>
<path d="M0 0 C0.33 0.99 0.66 1.98 1 3 C1.66 3 2.32 3 3 3 C3 20.82 3 38.64 3 57 C2.34 57 1.68 57 1 57 C0.67 38.19 0.34 19.38 0 0 Z " fill="#4F5FB7" transform="translate(182,273)"/>
<path d="M0 0 C3.3316168 0.68023731 6.05071049 1.93732188 9.0625 3.5 C19.42227699 8.85904253 31.18907391 8.13994123 42.15625 4.65625 C42.7646875 4.4396875 43.373125 4.223125 44 4 C43.67 5.32 43.34 6.64 43 8 C32.58954833 11.54901762 21.64994168 11.82347291 11 9 C10.67 8.34 10.34 7.68 10 7 C8.35 7 6.7 7 5 7 C5 6.01 5 5.02 5 4 C4.360625 3.71125 3.72125 3.4225 3.0625 3.125 C1 2 1 2 0 0 Z " fill="#AAAADF" transform="translate(271,482)"/>
<path d="M0 0 C0.66 0.33 1.32 0.66 2 1 C1.25 8.75 1.25 8.75 -1 11 C-1.86055772 13.19653013 -1.86055772 13.19653013 -2.5859375 15.76953125 C-2.87525146 16.73560303 -3.16456543 17.7016748 -3.46264648 18.69702148 C-3.76372314 19.72512939 -4.0647998 20.7532373 -4.375 21.8125 C-4.99857232 23.90368329 -5.62226959 25.99482932 -6.24609375 28.0859375 C-6.54628418 29.10010742 -6.84647461 30.11427734 -7.15576172 31.15917969 C-8.22574763 34.75962968 -9.32758356 38.34916798 -10.4375 41.9375 C-10.74558594 42.93652344 -11.05367188 43.93554688 -11.37109375 44.96484375 C-11.57863281 45.63644531 -11.78617187 46.30804688 -12 47 C-12.66 46.67 -13.32 46.34 -14 46 C-12.40723763 36.10067944 -9.09438551 26.83646784 -5.875 17.375 C-5.30542937 15.68638678 -4.7364142 13.99758608 -4.16796875 12.30859375 C-2.78504388 8.20353865 -1.39461505 4.10109756 0 0 Z " fill="#858AD3" transform="translate(286,260)"/>
<path d="M0 0 C1.98 0 3.96 0 6 0 C4.02 0.99 4.02 0.99 2 2 C2.66 6.62 3.32 11.24 4 16 C6.000625 15.38125 8.00125 14.7625 10.0625 14.125 C11.24972656 13.76148438 12.43695313 13.39796875 13.66015625 13.0234375 C15.52426419 12.45221378 17.38731794 11.87740545 19.24609375 11.2890625 C22.59046079 10.26117241 25.49968516 9.78785971 29 10 C26.69337678 12.6786443 24.88635943 13.55650779 21.47265625 14.38671875 C20.59802734 14.60263672 19.72339844 14.81855469 18.82226562 15.04101562 C17.91154297 15.25435547 17.00082031 15.46769531 16.0625 15.6875 C15.15564453 15.91244141 14.24878906 16.13738281 13.31445312 16.36914062 C9.37256796 17.32343071 6.08815989 18 2 18 C0.77100654 11.93184478 -0.27560214 6.20104812 0 0 Z " fill="#32339A" transform="translate(233,391)"/>
<path d="M0 0 C0.33 0.66 0.66 1.32 1 2 C1.66 2 2.32 2 3 2 C4.2890625 3.6796875 4.2890625 3.6796875 5.625 5.875 C6.29402344 6.95394531 6.29402344 6.95394531 6.9765625 8.0546875 C8 10 8 10 8 12 C8.66 12 9.32 12 10 12 C11.55078125 14.16015625 11.55078125 14.16015625 13.3125 17.0625 C15.32834887 20.33042891 17.33151477 23.54517697 19.625 26.625 C21.51325564 29.23708696 23.23297355 31.91319707 24.875 34.6875 C25.30554688 35.41324219 25.73609375 36.13898438 26.1796875 36.88671875 C27.14783226 39.38084407 26.90425047 40.5272657 26 43 C25.59652344 42.24460937 25.19304687 41.48921875 24.77734375 40.7109375 C17.93839133 28.31079871 10.21300826 15.90915433 1.29418945 4.89306641 C0 3 0 3 0 0 Z " fill="#434AA6" transform="translate(203,319)"/>
<path d="M0 0 C3.0120432 2.86511426 4.67585611 5.02756832 6 9 C4.68 8.67 3.36 8.34 2 8 C2.08104226 12.06330657 2.19387434 16.12513061 2.3125 20.1875 C2.33505859 21.33798828 2.35761719 22.48847656 2.38085938 23.67382812 C2.41630859 24.78564453 2.45175781 25.89746094 2.48828125 27.04296875 C2.51446533 28.06414795 2.54064941 29.08532715 2.56762695 30.13745117 C3.05558256 33.36798729 4.28920211 35.25802812 6 38 C5.67 38.66 5.34 39.32 5 40 C0.93429591 35.99832274 -0.29339025 33.02426123 -0.47927856 27.26138306 C-0.49482283 23.52543686 -0.41707374 19.79676889 -0.3125 16.0625 C-0.28739076 14.504593 -0.2645822 12.94664711 -0.24414062 11.38867188 C-0.1893391 7.59148031 -0.10321724 3.79617146 0 0 Z " fill="#4A59AF" transform="translate(196,278)"/>
<path d="M0 0 C1.07975674 3.91854123 1.15008573 7.64600957 1.125 11.6875 C1.12306641 12.45046387 1.12113281 13.21342773 1.11914062 13.99951172 C1.04090633 25.00664298 0.50229414 36.00563623 0 47 C-0.66 47 -1.32 47 -2 47 C-2.04970314 41.59229854 -2.08586241 36.1847322 -2.10986328 30.77685547 C-2.11987648 28.93991782 -2.13349102 27.10299593 -2.15087891 25.26611328 C-2.17533422 22.61486911 -2.18653013 19.963837 -2.1953125 17.3125 C-2.20563507 16.50071289 -2.21595764 15.68892578 -2.22659302 14.85253906 C-2.2276147 9.57577779 -1.4661764 5.07327474 0 0 Z " fill="#6792D5" transform="translate(168,181)"/>
<path d="M0 0 C3.77071576 0.46238483 6.54881275 1.66274175 9.8125 3.5625 C10.60269531 4.01753906 11.39289063 4.47257813 12.20703125 4.94140625 C12.79871094 5.29074219 13.39039063 5.64007813 14 6 C11.65525026 6.82117887 10.48338124 7.20293854 8.1484375 6.22265625 C7.56320312 5.83980469 6.97796875 5.45695313 6.375 5.0625 C3.37479219 2.82618333 3.37479219 2.82618333 1 3 C-0.32 6.96 -1.64 10.92 -3 15 C3.6 18.63 10.2 22.26 17 26 C16.67 26.66 16.34 27.32 16 28 C12.6757557 26.27166051 9.36802369 24.5138436 6.0625 22.75 C5.11697266 22.25886719 4.17144531 21.76773438 3.19726562 21.26171875 C1.84858398 20.53662109 1.84858398 20.53662109 0.47265625 19.796875 C-0.77632446 19.13703613 -0.77632446 19.13703613 -2.05053711 18.46386719 C-4 17 -4 17 -4.82592773 15.01147461 C-5.08784123 11.98495943 -4.12990217 9.6574127 -3.125 6.8125 C-2.75632812 5.74644531 -2.38765625 4.68039063 -2.0078125 3.58203125 C-1 1 -1 1 0 0 Z " fill="#BCC1EB" transform="translate(333,218)"/>
<path d="M0 0 C0 0.66 0 1.32 0 2 C-4.54957026 3.2950661 -9.10274587 4.57625927 -13.65966797 5.84521484 C-15.20661065 6.27802314 -16.75253632 6.71448485 -18.29736328 7.15478516 C-20.52894337 7.79011557 -22.76395379 8.41184696 -25 9.03125 C-25.68054443 9.22811401 -26.36108887 9.42497803 -27.06225586 9.62780762 C-31.83362031 10.93028004 -36.05407706 11.1738801 -41 11 C-41 10.67 -41 10.34 -41 10 C-40.09233887 9.76812988 -39.18467773 9.53625977 -38.24951172 9.29736328 C-34.86088014 8.43060478 -31.47276014 7.5618983 -28.08496094 6.69189453 C-26.62259423 6.3167713 -25.1600317 5.94241056 -23.69726562 5.56884766 C-21.58671123 5.0297074 -19.47689177 4.48776858 -17.3671875 3.9453125 C-15.46622314 3.45828857 -15.46622314 3.45828857 -13.52685547 2.96142578 C-11.25895645 2.34319331 -9.00868272 1.65367973 -6.78955078 0.87841797 C-4 0 -4 0 0 0 Z " fill="#4044A3" transform="translate(289,377)"/>
<path d="M0 0 C0.33 0 0.66 0 1 0 C1.04487549 1.00264893 1.08975098 2.00529785 1.13598633 3.03833008 C1.30808204 6.80933568 1.49658681 10.57938229 1.68969727 14.34936523 C1.7705733 15.97154869 1.84718004 17.59395151 1.91918945 19.21655273 C2.33378659 28.48923217 2.92083516 37.14663651 6 46 C3 45 3 45 2.05737305 43.35205078 C-0.74424266 34.63280324 -0.33281213 25.92273653 -0.1875 16.875 C-0.17242322 15.23438731 -0.15874012 13.59376119 -0.14648438 11.953125 C-0.1137217 7.96841333 -0.0621063 3.98435791 0 0 Z " fill="#406CC5" transform="translate(408,196)"/>
<path d="M0 0 C3.94690003 -0.05003872 7.89367309 -0.08601633 11.84082031 -0.10986328 C13.83144637 -0.12467591 15.82198437 -0.15010992 17.8125 -0.17578125 C25.13189641 -0.2127479 31.90273095 0.14353358 39 2 C39 2.66 39 3.32 39 4 C39.69867188 4.04898438 40.39734375 4.09796875 41.1171875 4.1484375 C42.48230469 4.26058594 42.48230469 4.26058594 43.875 4.375 C44.77992188 4.44460937 45.68484375 4.51421875 46.6171875 4.5859375 C49 5 49 5 51 7 C47.76839914 8.07720029 47.09589043 7.96605369 43.98046875 7.0390625 C43.20509766 6.81476563 42.42972656 6.59046875 41.63085938 6.359375 C40.82455078 6.11703125 40.01824219 5.8746875 39.1875 5.625 C37.59852242 5.15591011 36.0086912 4.68970088 34.41796875 4.2265625 C33.71438232 4.01596191 33.0107959 3.80536133 32.28588867 3.58837891 C27.60013948 2.38228518 22.99037062 1.865229 18.1640625 1.68359375 C17.10058594 1.64169922 16.03710938 1.59980469 14.94140625 1.55664062 C13.84699219 1.51732422 12.75257813 1.47800781 11.625 1.4375 C9.94857422 1.37272461 9.94857422 1.37272461 8.23828125 1.30664062 C5.49229801 1.20102589 2.74623119 1.0989203 0 1 C0 0.67 0 0.34 0 0 Z " fill="#58B1E6" transform="translate(287,105)"/>
<path d="M0 0 C0.66 0 1.32 0 2 0 C2.33 4.95 2.66 9.9 3 15 C7.05273438 13.828125 7.05273438 13.828125 11.10546875 12.65625 C13.85345876 12.03322392 16.19598416 11.87697188 19 12 C16.25995059 14.74004941 13.14949627 15.20409907 9.5 16.125 C8.81035156 16.30675781 8.12070313 16.48851562 7.41015625 16.67578125 C2.30245536 18 2.30245536 18 0 18 C0 12.06 0 6.12 0 0 Z " fill="#282084" transform="translate(235,424)"/>
<path d="M0 0 C0.33 0.99 0.66 1.98 1 3 C1.515625 2.8453125 2.03125 2.690625 2.5625 2.53125 C6.87627435 1.59106841 11.2890295 1.54217622 15.6875 1.28125 C18.27930724 1.06119089 20.52307858 0.74307643 23 0 C22.34 1.32 21.68 2.64 21 4 C19.85402344 4.04898438 18.70804688 4.09796875 17.52734375 4.1484375 C15.99737465 4.22352801 14.46742782 4.29907306 12.9375 4.375 C12.18533203 4.4059375 11.43316406 4.436875 10.65820312 4.46875 C5.81038719 4.72058459 1.61691957 5.49168365 -3 7 C-1.125 2.25 -1.125 2.25 0 0 Z " fill="#5099DA" transform="translate(183,150)"/>
<path d="M0 0 C-2.4174534 2.4174534 -3.97362421 2.68349112 -7.26953125 3.5078125 C-8.32333984 3.77207031 -9.37714844 4.03632813 -10.46289062 4.30859375 C-11.56826172 4.57800781 -12.67363281 4.84742188 -13.8125 5.125 C-14.90626953 5.40214844 -16.00003906 5.67929687 -17.12695312 5.96484375 C-21.8577648 7.13529441 -26.10087169 8.17725825 -31 8 C-26.7168246 5.14454973 -22.12500789 4.20911655 -17.1875 2.875 C-16.20201172 2.59785156 -15.21652344 2.32070313 -14.20117188 2.03515625 C-9.37454895 0.71909923 -5.05334631 -0.39465863 0 0 Z " fill="#373A9E" transform="translate(298,392)"/>
<path d="M0 0 C1.13643966 3.40931897 0.86747764 4.00335456 -0.4375 7.1875 C-0.86869141 8.26064453 -0.86869141 8.26064453 -1.30859375 9.35546875 C-1.65083984 10.16951172 -1.65083984 10.16951172 -2 11 C-6.86872054 10.40440894 -10.59328841 8.27522585 -14.8125 5.9375 C-15.50537109 5.56044922 -16.19824219 5.18339844 -16.91210938 4.79492188 C-18.61128985 3.86916148 -20.30609425 2.93537688 -22 2 C-22 1.67 -22 1.34 -22 1 C-17.04844737 0.39407387 -13.76656903 2.51307017 -9.6875 5 C-9.04232422 5.3815625 -8.39714844 5.763125 -7.73242188 6.15625 C-6.14916519 7.09447618 -4.57376795 8.04594311 -3 9 C-2.01 6.03 -1.02 3.06 0 0 Z " fill="#878CD1" transform="translate(262,277)"/>
<path d="M0 0 C0 0.66 0 1.32 0 2 C-1.95224208 3.28406399 -3.96340762 4.47941678 -6 5.625 C-7.11375 6.25664062 -8.2275 6.88828125 -9.375 7.5390625 C-10.24125 8.02117187 -11.1075 8.50328125 -12 9 C-11.67 12.63 -11.34 16.26 -11 20 C-13.34914492 17.65085508 -13.73140357 16.04320554 -14.625 12.875 C-14.88539063 11.96492188 -15.14578125 11.05484375 -15.4140625 10.1171875 C-15.60742188 9.41851562 -15.80078125 8.71984375 -16 8 C-13.71125827 6.66141476 -11.41930344 5.32898986 -9.125 4 C-8.47402344 3.6184375 -7.82304687 3.236875 -7.15234375 2.84375 C-2.2265625 0 -2.2265625 0 0 0 Z " fill="#9DA0DC" transform="translate(343,264)"/>
<path d="M0 0 C3.27469589 0.67153902 5.92140565 1.88709299 8.875 3.4375 C12.5196722 5.30296831 16.05344886 6.8575773 20 8 C20 8.33 20 8.66 20 9 C16.7 9 13.4 9 10 9 C10 8.34 10 7.68 10 7 C8.35 7 6.7 7 5 7 C5 6.01 5 5.02 5 4 C4.360625 3.71125 3.72125 3.4225 3.0625 3.125 C1 2 1 2 0 0 Z " fill="#C7C8EF" transform="translate(271,482)"/>
<path d="M0 0 C-3.22011269 1.77608134 -6.37505157 2.73551098 -9.9375 3.625 C-10.95714844 3.88539063 -11.97679687 4.14578125 -13.02734375 4.4140625 C-15.78167479 4.95696612 -18.20392763 5.1132847 -21 5 C-21 4.34 -21 3.68 -21 3 C-18.25244513 2.30111323 -15.50268803 1.6156012 -12.75 0.9375 C-11.97269531 0.73833984 -11.19539063 0.53917969 -10.39453125 0.33398438 C-9.64042969 0.15029297 -8.88632812 -0.03339844 -8.109375 -0.22265625 C-7.07248535 -0.48187866 -7.07248535 -0.48187866 -6.01464844 -0.74633789 C-3.74929191 -1.03156637 -2.1631688 -0.68076195 0 0 Z " fill="#413F97" transform="translate(289,411)"/>
<path d="M0 0 C0.66 0.33 1.32 0.66 2 1 C1.25 8.75 1.25 8.75 -1 11 C-1.59834554 12.52056618 -2.13506656 14.06612088 -2.625 15.625 C-2.88539063 16.44226563 -3.14578125 17.25953125 -3.4140625 18.1015625 C-3.60742188 18.72804688 -3.80078125 19.35453125 -4 20 C-4.66 20 -5.32 20 -6 20 C-4.63125844 13.04223041 -2.5466871 6.61396893 0 0 Z " fill="#ACAFE4" transform="translate(286,260)"/>
<path d="M0 0 C0.99 1.0828125 0.99 1.0828125 2 2.1875 C7.6809241 7.80441369 13.01115922 10.57202639 21 11 C17.93318611 12.82762724 16.18174368 13.24477663 12.6875 12.5 C7.77364434 11.2410783 4.2181295 8.92899989 1 5 C0.0625 2.125 0.0625 2.125 0 0 Z " fill="#4D6BBF" transform="translate(428,234)"/>
<path d="M0 0 C-1.47559669 4.42679007 -3.90057368 4.91432696 -8 7 C-8.66 7 -9.32 7 -10 7 C-10 7.66 -10 8.32 -10 9 C-10.61875 9.268125 -11.2375 9.53625 -11.875 9.8125 C-14.2995233 10.95556848 -14.2995233 10.95556848 -16 14 C-18.625 14.6875 -18.625 14.6875 -21 15 C-17.24634493 11.03185035 -13.2707518 7.83203497 -8.8125 4.6875 C-8.18408203 4.23310547 -7.55566406 3.77871094 -6.90820312 3.31054688 C-2.25352444 0 -2.25352444 0 0 0 Z " fill="#52AAE2" transform="translate(230,106)"/>
<path d="M0 0 C2.49505962 2.49505962 2.35948376 3.67328888 2.625 7.125 C2.69976562 8.03507812 2.77453125 8.94515625 2.8515625 9.8828125 C2.90054688 10.58148438 2.94953125 11.28015625 3 12 C-0.61973402 13.31626692 -3.09567131 14 -7 14 C-7 13.34 -7 12.68 -7 12 C-3.535 11.505 -3.535 11.505 0 11 C0 7.37 0 3.74 0 0 Z " fill="#4E53AA" transform="translate(248,364)"/>
<path d="M0 0 C0 0.66 0 1.32 0 2 C-7.23236667 4.50532963 -13.26515569 6.15166361 -21 6 C-17.33519874 3.91388236 -13.42609743 2.92269761 -9.375 1.875 C-8.3540625 1.60236328 -8.3540625 1.60236328 -7.3125 1.32421875 C-2.27449483 0 -2.27449483 0 0 0 Z " fill="#322B8F" transform="translate(281,428)"/>
<path d="M0 0 C0.99 0.495 0.99 0.495 2 1 C2 3.64 2 6.28 2 9 C5.465 8.505 5.465 8.505 9 8 C8 10 8 10 6.15234375 10.6328125 C4.1015625 11.08854167 2.05078125 11.54427083 0 12 C0 8.04 0 4.08 0 0 Z " fill="#3C41A3" transform="translate(232,369)"/>
<path d="M0 0 C0 0.33 0 0.66 0 1 C-6.46794133 2.51233701 -12.35590042 3.21432579 -19 3 C-12.49363677 -0.41908666 -7.1143317 -1.48215244 0 0 Z " fill="#49499F" transform="translate(318,404)"/>
<path d="M0 0 C4.90309806 0.52270265 8.18388507 2.0012631 12.375 4.5625 C13.43460938 5.20316406 14.49421875 5.84382813 15.5859375 6.50390625 C16.38257813 6.99761719 17.17921875 7.49132812 18 8 C15 9 15 9 11.42578125 7.34765625 C10.04907832 6.59612277 8.67814591 5.8339433 7.3125 5.0625 C6.2596582 4.48338867 6.2596582 4.48338867 5.18554688 3.89257812 C3.45204328 2.93738227 1.72534991 1.96984614 0 1 C0 0.67 0 0.34 0 0 Z " fill="#7B81CC" transform="translate(224,269)"/>
<path d="M0 0 C3.08824987 4.63237481 4.21070452 9.03342444 3.625 14.5 C3.41875 15.325 3.2125 16.15 3 17 C2.67 17 2.34 17 2 17 C0.7017874 11.23918159 -0.25706972 5.91260345 0 0 Z " fill="#578AD2" transform="translate(421,177)"/>
<path d="M0 0 C0.33 0.99 0.66 1.98 1 3 C0.34 3.66 -0.32 4.32 -1 5 C-0.67 5.66 -0.34 6.32 0 7 C-2.31 7.33 -4.62 7.66 -7 8 C-7 7.01 -7 6.02 -7 5 C-5.46875 3.61328125 -5.46875 3.61328125 -3.5 2.3125 C-2.8503125 1.87550781 -2.200625 1.43851562 -1.53125 0.98828125 C-1.0259375 0.66214844 -0.520625 0.33601563 0 0 Z " fill="#D5D5F1" transform="translate(322,480)"/>
<path d="M0 0 C-2.27467773 2.27467773 -3.76650412 2.75132436 -6.8125 3.6875 C-7.66457031 3.95949219 -8.51664062 4.23148437 -9.39453125 4.51171875 C-12.25783475 5.04831986 -14.20679682 4.74719439 -17 4 C-11.88643979 1.01708988 -5.89517358 -0.36844835 0 0 Z " fill="#383494" transform="translate(311,421)"/>
<path d="M0 0 C-0.33 1.32 -0.66 2.64 -1 4 C-4.40562852 4.77842938 -7.50765756 5.09978121 -11 5 C-11 4.34 -11 3.68 -11 3 C-9.54293274 2.49632243 -8.08429904 1.99717444 -6.625 1.5 C-5.81289063 1.2215625 -5.00078125 0.943125 -4.1640625 0.65625 C-2 0 -2 0 0 0 Z " fill="#B2B2E2" transform="translate(315,486)"/>
<path d="M0 0 C-2.28814723 2.28814723 -3.80751622 2.75451161 -6.875 3.6875 C-7.73867187 3.95949219 -8.60234375 4.23148437 -9.4921875 4.51171875 C-12.08694932 5.01692938 -13.530785 4.85561171 -16 4 C-11.17353323 0.78235549 -5.80178176 -0.36261136 0 0 Z " fill="#352B8B" transform="translate(254,436)"/>
<path d="M0 0 C5.61 0 11.22 0 17 0 C17.33 0.66 17.66 1.32 18 2 C17.34 2.66 16.68 3.32 16 4 C15.67 3.34 15.34 2.68 15 2 C13.06257659 1.97296619 11.12504521 1.95358875 9.1875 1.9375 C7.56908203 1.92009766 7.56908203 1.92009766 5.91796875 1.90234375 C2.93487831 1.86375234 2.93487831 1.86375234 0 3 C0 2.01 0 1.02 0 0 Z " fill="#EAEDFC" transform="translate(304,206)"/>
<path d="M0 0 C-2.4453385 2.96527758 -4.44602347 3.55582214 -8.1875 4.1875 C-9.08855469 4.34605469 -9.98960937 4.50460937 -10.91796875 4.66796875 C-11.94857422 4.83232422 -11.94857422 4.83232422 -13 5 C-12.67 4.01 -12.34 3.02 -12 2 C-7.92532275 0.51117562 -4.33458585 -0.26270217 0 0 Z " fill="#4041A2" transform="translate(262,401)"/>
<path d="M0 0 C0.66 0.33 1.32 0.66 2 1 C0.92173635 2.27513763 -0.16285519 3.54492569 -1.25 4.8125 C-1.85328125 5.52019531 -2.4565625 6.22789062 -3.078125 6.95703125 C-4.93811214 8.9342127 -6.73103544 10.51392197 -9 12 C-9.66 12 -10.32 12 -11 12 C-11 11.34 -11 10.68 -11 10 C-9.56199685 9.06362586 -8.12177263 8.13039899 -6.66796875 7.21875 C-3.92257327 5.21274675 -2.07151827 2.68078835 0 0 Z " fill="#4245A0" transform="translate(316,378)"/>
<path d="M0 0 C-1.95519384 1.17192047 -3.9142539 2.3373929 -5.875 3.5 C-6.96554687 4.1496875 -8.05609375 4.799375 -9.1796875 5.46875 C-12 7 -12 7 -14 7 C-14 6.34 -14 5.68 -14 5 C-12.23628182 3.96692229 -10.46374967 2.94887951 -8.6875 1.9375 C-7.70136719 1.36902344 -6.71523438 0.80054688 -5.69921875 0.21484375 C-3 -1 -3 -1 0 0 Z " fill="#6671C5" transform="translate(384,261)"/>
<path d="M0 0 C0 0.66 0 1.32 0 2 C-1.57533086 2.86883706 -3.16064509 3.71959068 -4.75 4.5625 C-5.63171875 5.03816406 -6.5134375 5.51382813 -7.421875 6.00390625 C-10.20701188 7.07998186 -11.26980214 7.06528748 -14 6 C-12.04414675 4.99515796 -10.08523763 3.99626195 -8.125 3 C-6.48917969 2.1646875 -6.48917969 2.1646875 -4.8203125 1.3125 C-2 0 -2 0 0 0 Z " fill="#56B3E8" transform="translate(248,97)"/>
<path d="M0 0 C0 0.33 0 0.66 0 1 C-5.3212615 2.08318169 -10.63486869 3.152874 -16 4 C-13.66468254 0.49702381 -12.11314738 0.16478829 -8.109375 -0.7265625 C-5.25227816 -1.0969269 -2.7791346 -0.69478365 0 0 Z " fill="#5357B2" transform="translate(288,366)"/>
<path d="M0 0 C0.33 0 0.66 0 1 0 C1.19335938 0.66386719 1.38671875 1.32773437 1.5859375 2.01171875 C3.52751352 8.59789309 3.52751352 8.59789309 6 15 C5.01 15.495 5.01 15.495 4 16 C0.67424388 10.4174808 -0.46450943 6.50313209 0 0 Z " fill="#3E439D" transform="translate(167,329)"/>
<path d="M0 0 C0.33 0.99 0.66 1.98 1 3 C-3.455 6.96 -3.455 6.96 -8 11 C-8.66 10.67 -9.32 10.34 -10 10 C-6.7 6.7 -3.4 3.4 0 0 Z " fill="#4BA2E2" transform="translate(208,121)"/>
<path d="M0 0 C0.66 0 1.32 0 2 0 C2.86916887 1.40751221 3.71985149 2.8264521 4.5625 4.25 C5.03816406 5.03890625 5.51382813 5.8278125 6.00390625 6.640625 C7.13022151 9.30844625 7.0169313 10.34501768 6 13 C4.99491199 11.21118264 3.99607264 9.41885304 3 7.625 C2.1646875 6.12839844 2.1646875 6.12839844 1.3125 4.6015625 C0 2 0 2 0 0 Z " fill="#3A3FA0" transform="translate(223,349)"/>
<path d="M0 0 C-1 3 -1 3 -2.77734375 4.16796875 C-3.49019531 4.50441406 -4.20304687 4.84085937 -4.9375 5.1875 C-6.00291016 5.70376953 -6.00291016 5.70376953 -7.08984375 6.23046875 C-9 7 -9 7 -11 7 C-10 4 -10 4 -8.22265625 2.83203125 C-7.50980469 2.49558594 -6.79695313 2.15914063 -6.0625 1.8125 C-5.35222656 1.46832031 -4.64195312 1.12414062 -3.91015625 0.76953125 C-2 0 -2 0 0 0 Z " fill="#797FD0" transform="translate(350,278)"/>
<path d="M0 0 C1.98 0 3.96 0 6 0 C4.02 0.99 4.02 0.99 2 2 C2 5.3 2 8.6 2 12 C1.67 12 1.34 12 1 12 C0.01751476 7.9472484 -0.08159574 4.16138263 0 0 Z " fill="#46479E" transform="translate(233,391)"/>
<path d="M0 0 C2.52588702 2.36292656 3.88820837 3.66462511 5 7 C3.68 6.67 2.36 6.34 1 6 C1 7.65 1 9.3 1 11 C0.67 11 0.34 11 0 11 C0 7.37 0 3.74 0 0 Z " fill="#4458BA" transform="translate(197,280)"/>
<path d="M0 0 C-1.65 1.65 -3.3 3.3 -5 5 C-5.33 4.01 -5.66 3.02 -6 2 C-7.65 1.67 -9.3 1.34 -11 1 C-11 0.67 -11 0.34 -11 0 C-3.57142857 -1.28571429 -3.57142857 -1.28571429 0 0 Z " fill="#42397F" transform="translate(337,461)"/>
<path d="M0 0 C0.66 0.33 1.32 0.66 2 1 C1.67 3.64 1.34 6.28 1 9 C-0.32 9.33 -1.64 9.66 -3 10 C-2.01 6.7 -1.02 3.4 0 0 Z " fill="#C5C7F1" transform="translate(286,260)"/>
<path d="M0 0 C-0.99 0 -1.98 0 -3 0 C-3 0.66 -3 1.32 -3 2 C-5.97 2.66 -8.94 3.32 -12 4 C-8.26195079 0.26195079 -5.24318757 -1.94192132 0 0 Z " fill="#609FDB" transform="translate(190,165)"/>
<path d="M0 0 C0.99 0.66 1.98 1.32 3 2 C2.34 3.32 1.68 4.64 1 6 C0.34 6 -0.32 6 -1 6 C-1.66 4.35 -2.32 2.7 -3 1 C-2.01 0.67 -1.02 0.34 0 0 Z " fill="#BEC1E1" transform="translate(297,499)"/>
<path d="M0 0 C0 0.66 0 1.32 0 2 C-1.28745036 2.38922918 -2.58019597 2.76098036 -3.875 3.125 C-4.59429687 3.33382813 -5.31359375 3.54265625 -6.0546875 3.7578125 C-6.69664062 3.83773438 -7.33859375 3.91765625 -8 4 C-8.66 3.34 -9.32 2.68 -10 2 C-6.38026598 0.68373308 -3.90432869 0 0 0 Z " fill="#5356AB" transform="translate(289,377)"/>
<path d="M0 0 C2.71928517 0.37507382 3.84218661 0.84218661 5.8125 2.8125 C7 5 7 5 6.6875 7.25 C6.460625 7.8275 6.23375 8.405 6 9 C3 4.25 3 4.25 3 2 C2.01 1.67 1.02 1.34 0 1 C0 0.67 0 0.34 0 0 Z " fill="#4F67BA" transform="translate(159,267)"/>
<path d="M0 0 C2.94956528 1.36944102 5.52468811 2.87830409 8 5 C8 5.66 8 6.32 8 7 C5.05043472 5.63055898 2.47531189 4.12169591 0 2 C0 1.34 0 0.68 0 0 Z " fill="#372B83" transform="translate(270,478)"/>
<path d="M0 0 C0.99 0.33 1.98 0.66 3 1 C0.69 2.65 -1.62 4.3 -4 6 C-4.66 5.67 -5.32 5.34 -6 5 C-4.06745228 2.9754262 -2.36841312 1.57894208 0 0 Z " fill="#454AA0" transform="translate(415,347)"/>
<path d="M0 0 C-0.99 0.66 -1.98 1.32 -3 2 C-5.03135683 3.63101643 -7.00931873 5.31898026 -9 7 C-8.6875 4.625 -8.6875 4.625 -8 2 C-4.77208445 -0.1519437 -3.71599191 -0.20086443 0 0 Z " fill="#4789D6" transform="translate(194,181)"/>
<path d="M0 0 C5.41538462 -0.36923077 5.41538462 -0.36923077 8.375 1.5 C8.91125 1.995 9.4475 2.49 10 3 C5.82412255 4.39195915 3.86525224 2.82323219 0 1 C0 0.67 0 0.34 0 0 Z " fill="#5AACE4" transform="translate(337,113)"/>
</svg>
