<?xml version="1.0" encoding="UTF-8"?>
<svg version="1.1" xmlns="http://www.w3.org/2000/svg" width="268" height="168">
<path d="M0 0 C4.0619557 -0.17456339 8.12294587 -0.2809442 12.1875 -0.375 C13.33798828 -0.42527344 14.48847656 -0.47554687 15.67382812 -0.52734375 C23.99173265 -0.67200296 23.99173265 -0.67200296 26.87255859 1.24804688 C29.60194338 4.42657093 30.910957 8.00684233 32 12 C32.495 12.99 32.495 12.99 33 14 C33.4253215 18.16324314 33.42383415 21.87808608 31.9375 25.8125 C28.12131721 30.12109347 24.68465353 31.89303787 19.0625 32.25 C18.051875 32.1675 17.04125 32.085 16 32 C15.67 35.63 15.34 39.26 15 43 C11.04 43 7.08 43 3 43 C3 42.01 3 41.02 3 40 C1.2984375 40.0309375 1.2984375 40.0309375 -0.4375 40.0625 C-4 40 -4 40 -5 39 C-6.28925705 27.65031091 -5.12510707 10.25021414 0 0 Z " fill="#002F87" transform="translate(56,63)"/>
<path d="M0 0 C2.95954664 0.78176704 4.73655774 1.42796399 6.92578125 3.6171875 C7.32625569 5.93993927 7.66549165 8.27458107 7.92578125 10.6171875 C8.91578125 9.9571875 9.90578125 9.2971875 10.92578125 8.6171875 C13.5612793 8.39013672 13.5612793 8.39013672 16.6875 8.421875 C18.36489258 8.43154297 18.36489258 8.43154297 20.07617188 8.44140625 C21.82704102 8.46654297 21.82704102 8.46654297 23.61328125 8.4921875 C25.38155273 8.50572266 25.38155273 8.50572266 27.18554688 8.51953125 C30.09916151 8.54312327 33.01237017 8.5760421 35.92578125 8.6171875 C36.91578125 10.9271875 37.90578125 13.2371875 38.92578125 15.6171875 C39.20550781 15.111875 39.48523438 14.6065625 39.7734375 14.0859375 C41.03686545 12.03845298 42.21123311 10.31051598 43.92578125 8.6171875 C47.73828125 8.1796875 47.73828125 8.1796875 50.92578125 8.6171875 C50.03312117 14.48889269 47.15078653 18.54850006 43.92578125 23.4296875 C43.11560547 24.75516602 43.11560547 24.75516602 42.2890625 26.10742188 C38.16856122 32.32659338 38.16856122 32.32659338 34.48046875 33.18896484 C32.2192173 33.19118002 30.14570121 33.03342249 27.92578125 32.6171875 C28.9911034 30.47949369 30.06524902 28.3492164 31.16796875 26.23046875 C32.17082621 22.77216131 31.4005308 21.09966435 30.05078125 17.8046875 C29.34953125 16.0928125 28.64828125 14.3809375 27.92578125 12.6171875 C26.93578125 17.5671875 25.94578125 22.5171875 24.92578125 27.6171875 C22.17413693 27.75236653 19.42913604 27.85134001 16.67578125 27.9296875 C15.89847656 27.97158203 15.12117188 28.01347656 14.3203125 28.05664062 C8.52658209 28.18043828 8.52658209 28.18043828 5.42578125 25.2734375 C3.93833764 22.63942277 3.26758329 20.60795532 2.92578125 17.6171875 C2.26578125 17.9471875 1.60578125 18.2771875 0.92578125 18.6171875 C-0.61445871 18.68669291 -2.15756863 18.70171107 -3.69921875 18.6796875 C-4.92511719 18.66615234 -4.92511719 18.66615234 -6.17578125 18.65234375 C-6.80226563 18.64074219 -7.42875 18.62914063 -8.07421875 18.6171875 C-8.21859375 19.9165625 -8.36296875 21.2159375 -8.51171875 22.5546875 C-8.94921875 26.4921875 -8.94921875 26.4921875 -10.07421875 27.6171875 C-12.40719308 27.65811687 -14.741271 27.65960473 -17.07421875 27.6171875 C-17.21707289 21.67173421 -16.73234164 16.10455659 -15.76171875 10.2421875 C-15.64376953 9.43652344 -15.52582031 8.63085938 -15.40429688 7.80078125 C-15.06447186 5.72000655 -14.57872474 3.66427765 -14.07421875 1.6171875 C-9.628812 -1.346417 -5.17613535 -0.95529428 0 0 Z M-6.07421875 7.6171875 C-6.40421875 8.9371875 -6.73421875 10.2571875 -7.07421875 11.6171875 C-5.42421875 11.6171875 -3.77421875 11.6171875 -2.07421875 11.6171875 C-2.07421875 10.2971875 -2.07421875 8.9771875 -2.07421875 7.6171875 C-3.39421875 7.6171875 -4.71421875 7.6171875 -6.07421875 7.6171875 Z M13.92578125 14.6171875 C11.64843115 17.43228743 11.64843115 17.43228743 11.92578125 20.6171875 C13.76278914 21.38961019 13.76278914 21.38961019 15.92578125 21.6171875 C17.84244792 20.53385417 17.84244792 20.53385417 18.92578125 18.6171875 C18.69820394 16.45419539 18.69820394 16.45419539 17.92578125 14.6171875 C16.60578125 14.6171875 15.28578125 14.6171875 13.92578125 14.6171875 Z " fill="#002F87" transform="translate(119.07421875,73.3828125)"/>
<path d="M0 0 C2 2 2 2 2.125 5.625 C2.08375 6.73875 2.0425 7.8525 2 9 C2.99 8.34 3.98 7.68 5 7 C6.90112305 6.77294922 6.90112305 6.77294922 9.01171875 6.8046875 C9.76904297 6.81113281 10.52636719 6.81757812 11.30664062 6.82421875 C12.48516602 6.84935547 12.48516602 6.84935547 13.6875 6.875 C14.48478516 6.88402344 15.28207031 6.89304687 16.10351562 6.90234375 C18.069139 6.92588415 20.03460775 6.96175453 22 7 C22.0742423 11.63766905 22.03596861 15.88280382 21.0625 20.4375 C20.88847656 21.28183594 20.71445313 22.12617187 20.53515625 22.99609375 C20 25 20 25 19 26 C16.37948926 26.18062277 13.81039474 26.27807881 11.1875 26.3125 C10.46240234 26.34150391 9.73730469 26.37050781 8.99023438 26.40039062 C5.47664583 26.44218079 3.41666284 26.3017669 0.53515625 24.21484375 C-1.53410409 21.22942234 -1.72501622 18.5747891 -2 15 C-2.99 15.66 -3.98 16.32 -5 17 C-7.04296875 17.1953125 -7.04296875 17.1953125 -9.1875 17.125 C-10.445625 17.08375 -11.70375 17.0425 -13 17 C-13.144375 18.299375 -13.28875 19.59875 -13.4375 20.9375 C-13.875 24.875 -13.875 24.875 -15 26 C-17.33297433 26.04092937 -19.66705225 26.04241723 -22 26 C-23.40444502 23.19110996 -22.73665437 21.4199262 -22.22265625 18.3359375 C-22.03896484 17.21445313 -21.85527344 16.09296875 -21.66601562 14.9375 C-21.46685547 13.761875 -21.26769531 12.58625 -21.0625 11.375 C-20.86720703 10.19164063 -20.67191406 9.00828125 -20.47070312 7.7890625 C-19.98619416 4.85837414 -19.49571764 1.92880975 -19 -1 C-12.62828319 -3.1239056 -6.21339648 -2.28247218 0 0 Z M-11 6 C-11.33 7.32 -11.66 8.64 -12 10 C-10.35 9.67 -8.7 9.34 -7 9 C-7 8.01 -7 7.02 -7 6 C-8.32 6 -9.64 6 -11 6 Z M9 13 C8.34 13.66 7.68 14.32 7 15 C7.32041397 17.60280568 7.32041397 17.60280568 8 20 C9.65 19.34 11.3 18.68 13 18 C13 16.68 13 15.36 13 14 C11.10820797 13.3185177 11.10820797 13.3185177 9 13 Z " fill="#009CDE" transform="translate(191,75)"/>
<path d="M0 0 C2.42666188 1.74416323 3.83891029 3.09111488 4.37109375 6.09375 C4.50495515 10.81826991 4.24191801 14.33976999 1 18 C-3.89714909 21.48450993 -6.85838443 22.50135637 -13 22 C-13.33 25.63 -13.66 29.26 -14 33 C-17.96 33 -21.92 33 -26 33 C-26 31.68 -26 30.36 -26 29 C-25.34 29 -24.68 29 -24 29 C-24.04125 27.824375 -24.0825 26.64875 -24.125 25.4375 C-24.13983635 21.27590326 -23.31170778 17.93512333 -22 14 C-21.13117187 13.91363281 -20.26234375 13.82726562 -19.3671875 13.73828125 C-10.01552247 12.68201981 -10.01552247 12.68201981 -3 7 C-1.75174469 4.6859267 -0.8803016 2.49418786 0 0 Z " fill="#009ADC" transform="translate(85,73)"/>
<path d="M0 0 C6.27 0 12.54 0 19 0 C17.87212449 7.89512855 17.87212449 7.89512855 14.625 10.375 C14.01914063 10.85710937 13.41328125 11.33921875 12.7890625 11.8359375 C7.95209012 14.98313787 2.54680246 14.0652565 -3 14 C-2.01 9.38 -1.02 4.76 0 0 Z " fill="#00226A" transform="translate(65,73)"/>
<path d="M0 0 C0.63959391 20.04060914 0.63959391 20.04060914 -4 27 C-7.625 27.1875 -7.625 27.1875 -11 27 C-10.59349607 20.38379813 -9.73542198 13.89366921 -8.5625 7.375 C-8.37917114 6.30862305 -8.37917114 6.30862305 -8.19213867 5.22070312 C-7.86410505 3.46607492 -7.43986231 1.72998478 -7 0 C-4.3333581 -1.33332095 -2.83319697 -0.67102033 0 0 Z " fill="#009CDE" transform="translate(223,74)"/>
</svg>
